<svg width="1267" height="277" viewBox="0 0 1267 277" fill="none" xmlns="http://www.w3.org/2000/svg">
<line x1="1129.5" y1="159" x2="1129.5" y2="239" stroke="white" stroke-opacity="0.25"/>
<line x1="335.5" y1="174" x2="335.5" y2="228" stroke="white" stroke-opacity="0.25"/>
<line x1="207.27" y1="9.57941" x2="263.27" y2="45.5794" stroke="white" stroke-opacity="0.25"/>
<line x1="591.265" y1="0.576001" x2="663.265" y2="45.576" stroke="white" stroke-opacity="0.25"/>
<line x1="994.272" y1="232.58" x2="1062.28" y2="276.58" stroke="white" stroke-opacity="0.25"/>
<line x1="601.74" y1="157.643" x2="670.704" y2="115.573" stroke="white" stroke-opacity="0.25"/>
<line x1="986.733" y1="164.58" x2="1068.73" y2="111.58" stroke="white" stroke-opacity="0.25"/>
<line x1="730.5" y1="179" x2="730.5" y2="233" stroke="white" stroke-opacity="0.25"/>
<line x1="409.743" y1="43.7284" x2="466.743" y2="9.57111" stroke="white" stroke-opacity="0.25"/>
<line x1="799.739" y1="43.522" x2="866.689" y2="2.57346" stroke="white" stroke-opacity="0.25"/>
<line x1="1198.73" y1="49.5287" x2="1266.67" y2="5.58017" stroke="white" stroke-opacity="0.25"/>
<line x1="790.738" y1="276.574" x2="873.744" y2="225.574" stroke="white" stroke-opacity="0.25"/>
<line x1="401.758" y1="274.563" x2="466.758" y2="238.563" stroke="white" stroke-opacity="0.25"/>
<line x1="0.275795" y1="119.583" x2="62.2761" y2="160.583" stroke="white" stroke-opacity="0.25"/>
<line x1="9.73209" y1="273.578" x2="61.7316" y2="240.578" stroke="white" stroke-opacity="0.25"/>
<line x1="210.554" y1="241.478" x2="250.259" y2="265.573" stroke="white" stroke-opacity="0.25"/>
<line x1="203.728" y1="160.58" x2="257.728" y2="125.58" stroke="white" stroke-opacity="0.25"/>
<line x1="3.73905" y1="45.7308" x2="67.7391" y2="6.5735" stroke="white" stroke-opacity="0.25"/>
</svg>
