<svg width="182" height="56" viewBox="0 0 182 56" fill="none" xmlns="http://www.w3.org/2000/svg">
<g clip-path="url(#clip0_2157_40588)">
<path fill-rule="evenodd" clip-rule="evenodd" d="M5.37915 29.0075C5.37915 41.0853 15.171 50.8766 27.2483 50.8766C39.325 50.8766 49.1159 41.0853 49.1159 29.0075C49.1159 16.9303 39.325 7.13891 27.2483 7.13891C15.171 7.13891 5.37915 16.9303 5.37915 29.0075Z" fill="url(#paint0_radial_2157_40588)"/>
<path fill-rule="evenodd" clip-rule="evenodd" d="M31.5113 27.103C32.3305 27.103 32.9958 27.7678 32.9958 28.5875C32.9958 29.4067 32.3305 30.0705 31.5113 30.0705C30.6921 30.0705 30.0273 29.4067 30.0273 28.5875C30.0273 27.7678 30.6921 27.103 31.5113 27.103Z" fill="#FEFEFE"/>
<path fill-rule="evenodd" clip-rule="evenodd" d="M27.2464 29.2576C28.7001 29.2576 29.8786 30.4361 29.8786 31.8898C29.8786 33.3439 28.7001 34.5229 27.2464 34.5229C25.7923 34.5229 24.6133 33.3439 24.6133 31.8898C24.6133 30.4361 25.7923 29.2576 27.2464 29.2576Z" fill="#FEFEFE"/>
<path fill-rule="evenodd" clip-rule="evenodd" d="M27.2487 23.3367C27.8149 23.3367 28.2743 23.7956 28.2743 24.3622C28.2743 24.9289 27.8149 25.3883 27.2487 25.3883C26.6825 25.3883 26.2227 24.9289 26.2227 24.3622C26.2227 23.7956 26.6825 23.3367 27.2487 23.3367Z" fill="#FEFEFE"/>
<path fill-rule="evenodd" clip-rule="evenodd" d="M-0.144531 29.0075C-0.144531 44.1369 12.1198 56.4003 27.2482 56.4003C42.3762 56.4003 54.6401 44.1369 54.6401 29.0075C54.6401 13.8791 42.3762 1.61523 27.2482 1.61523C12.1198 1.61523 -0.144531 13.8791 -0.144531 29.0075ZM5.37915 29.0075C5.37915 16.9303 15.171 7.13891 27.2482 7.13891C39.325 7.13891 49.1159 16.9303 49.1159 29.0075C49.1159 41.0853 39.325 50.8766 27.2482 50.8766C23.7002 50.8766 20.3507 50.031 17.3895 48.5326V40.9501C20.0674 43.1638 23.502 44.4938 27.2482 44.4938C35.8005 44.4938 42.7336 37.5598 42.7336 29.0075C42.7336 21.8065 37.8179 15.7551 31.1595 14.0225L29.9579 15.7609V19.5269C34.0851 20.704 37.1065 24.5032 37.1065 29.0075C37.1065 34.4528 32.6921 38.8663 27.2482 38.8663C21.803 38.8663 17.3895 34.4528 17.3895 29.0075C17.3895 24.5032 20.4114 20.704 24.5381 19.5269V15.7609L23.337 14.0225C16.6781 15.7551 11.7624 21.8065 11.7624 29.0075V44.4481C7.81749 40.4936 5.37915 35.0353 5.37915 29.0075Z" fill="url(#paint1_radial_2157_40588)"/>
<path fill-rule="evenodd" clip-rule="evenodd" d="M115.641 36.3716C113.832 36.3716 112.192 35.637 111.007 34.4503C109.82 33.2646 109.086 31.631 109.086 29.832V23.8984H112.001V29.832C112.001 30.8474 112.409 31.7628 113.067 32.4213C113.724 33.0789 114.634 33.4859 115.641 33.4859H118.507V23.8984H121.422V36.3716H115.641Z" fill="#005EA8"/>
<path fill-rule="evenodd" clip-rule="evenodd" d="M87.8866 23.6338C89.6952 23.6338 91.3341 24.3683 92.5213 25.5555C93.707 26.7417 94.4406 28.3748 94.4406 30.1734C94.4406 31.9729 93.707 33.606 92.5213 34.7923C91.3341 35.979 89.6952 36.713 87.8866 36.713C86.0774 36.713 84.439 35.979 83.2513 34.7927C82.0666 33.606 81.332 31.9729 81.332 30.1734C81.332 28.3748 82.0666 26.7417 83.2513 25.5555C84.439 24.3683 86.0774 23.6338 87.8866 23.6338ZM90.4591 27.5845C89.8025 26.9269 88.8924 26.52 87.8866 26.52C86.8802 26.52 85.9701 26.9269 85.313 27.5845C84.655 28.243 84.2476 29.1579 84.2476 30.1734C84.2476 31.1893 84.655 32.1047 85.313 32.7633C85.9701 33.4208 86.8802 33.8273 87.8866 33.8273C88.8924 33.8273 89.8025 33.4208 90.4591 32.7633C91.1191 32.1047 91.526 31.1893 91.526 30.1734C91.526 29.1579 91.1191 28.243 90.4591 27.5845Z" fill="#005EA8"/>
<path fill-rule="evenodd" clip-rule="evenodd" d="M74.0067 23.6338C75.8158 23.6338 77.4542 24.3683 78.6419 25.5555C79.8272 26.7417 80.5612 28.3748 80.5612 30.1734C80.5612 31.9734 79.8272 33.606 78.6419 34.7922C77.4542 35.9789 75.8158 36.713 74.0067 36.713C72.6608 36.713 71.4096 36.3065 70.3677 35.6095V39.7026H67.4531V30.1734C67.4531 28.3743 68.1867 26.7417 69.3724 25.5555C70.5591 24.3683 72.198 23.6338 74.0067 23.6338ZM76.5802 27.5845C75.9231 26.9269 75.0135 26.52 74.0067 26.52C73.0009 26.52 72.0907 26.9269 71.4341 27.5845C70.7756 28.243 70.3677 29.1579 70.3677 30.1734C70.3677 31.1893 70.7756 32.1047 71.4341 32.7633C72.0907 33.4208 73.0009 33.8273 74.0067 33.8273C75.0135 33.8273 75.9231 33.4208 76.5802 32.7633C77.2387 32.1047 77.6462 31.1893 77.6462 30.1734C77.6462 29.1579 77.2387 28.243 76.5802 27.5845Z" fill="#005EA8"/>
<path fill-rule="evenodd" clip-rule="evenodd" d="M101.761 23.6338C103.57 23.6338 105.209 24.3683 106.395 25.5555C107.581 26.7417 108.316 28.3748 108.316 30.1734C108.316 31.9734 107.581 33.606 106.395 34.7922C105.209 35.979 103.57 36.713 101.761 36.713C99.9524 36.713 98.3135 35.979 97.1263 34.7927C95.9406 33.606 95.207 31.9734 95.207 30.1734C95.207 30.0858 95.2085 29.9983 95.2123 29.9107V25.4304L95.207 25.4218C95.207 23.6227 95.9406 21.9896 97.1263 20.8039C98.3135 19.6162 99.9524 18.8826 101.761 18.8826C102.247 18.8826 102.719 18.7874 103.154 18.6075C103.591 18.4261 103.993 18.1592 104.335 17.8181L106.395 19.8471C105.782 20.4614 105.057 20.9415 104.27 21.2676C103.479 21.5947 102.628 21.7679 101.761 21.7679C100.755 21.7679 99.8456 22.1748 99.188 22.8324C98.6921 23.3283 98.3381 23.97 98.1942 24.6906C99.2208 24.022 100.446 23.6338 101.761 23.6338ZM104.335 27.5845C103.677 26.9269 102.767 26.52 101.761 26.52C100.755 26.52 99.8456 26.9269 99.188 27.5845C98.53 28.243 98.1226 29.1579 98.1226 30.1734C98.1226 31.1893 98.53 32.1047 99.188 32.7633C99.8456 33.4208 100.755 33.8273 101.761 33.8273C102.767 33.8273 103.677 33.4208 104.335 32.7633C104.993 32.1047 105.401 31.1893 105.401 30.1734C105.401 29.1579 104.994 28.243 104.335 27.5845Z" fill="#005EA8"/>
<path fill-rule="evenodd" clip-rule="evenodd" d="M132.43 30.174C132.617 30.3236 132.795 30.4833 132.963 30.6521C134.15 31.8383 134.883 33.4714 134.883 35.2705V36.3711H131.968V35.2705C131.968 34.255 131.56 33.3396 130.902 32.6811C130.245 32.024 129.335 31.6171 128.328 31.6171H125.461V36.3711H122.547V23.8984H125.461V28.7309H128.328C129.335 28.7309 130.245 28.3239 130.902 27.6668C131.56 27.0083 131.968 26.0929 131.968 25.0774H131.971V23.8984H134.88V25.0774H134.883C134.883 26.876 134.15 28.5096 132.963 29.6953C132.795 29.8647 132.617 30.0239 132.43 30.174Z" fill="#005EA8"/>
<path d="M142.972 26.7846C141.966 26.7846 141.056 27.1911 140.398 27.8491C139.74 28.5077 139.333 29.4226 139.333 30.438V36.3711H136.418V30.438C136.418 28.639 137.152 27.0064 138.338 25.8197C139.524 24.633 141.163 23.8989 142.972 23.8984H148.755V36.3711H145.839V26.7851H142.972L142.972 26.7846Z" fill="#00B1DB"/>
<path d="M169.957 23.6338C171.766 23.6338 173.404 24.3683 174.591 25.5555C175.777 26.7417 176.511 28.3748 176.511 30.1734C176.511 31.9729 175.777 33.606 174.591 34.7922C173.404 35.979 171.766 36.713 169.957 36.713C168.149 36.713 166.509 35.979 165.322 34.7922C164.137 33.606 163.402 31.9729 163.402 30.1734C163.402 30.0849 163.404 29.9973 163.407 29.9088V25.4218H163.402C163.402 23.6227 164.137 21.9896 165.322 20.8039C166.509 19.6162 168.149 18.8826 169.957 18.8826C170.442 18.8826 170.915 18.7874 171.349 18.6075C171.786 18.4261 172.189 18.1592 172.53 17.8181L174.591 19.8471C173.976 20.4614 173.253 20.9415 172.465 21.2676C171.674 21.5947 170.823 21.7679 169.957 21.7679C168.951 21.7679 168.041 22.1748 167.383 22.8324C166.887 23.3283 166.534 23.97 166.389 24.6906C167.417 24.022 168.642 23.6338 169.957 23.6338ZM172.53 27.5845C171.873 26.9269 170.962 26.52 169.957 26.52C168.951 26.52 168.041 26.9269 167.383 27.5845C166.725 28.243 166.318 29.1579 166.318 30.1734C166.318 31.1893 166.725 32.1047 167.383 32.7633C168.041 33.4208 168.951 33.8273 169.957 33.8273C170.962 33.8273 171.873 33.4208 172.53 32.7633C173.188 32.1047 173.596 31.1893 173.596 30.1734C173.596 29.1579 173.188 28.243 172.53 27.5845Z" fill="#00B1DB"/>
<path d="M156.077 23.6338C157.886 23.6338 159.526 24.3683 160.712 25.5555C161.898 26.7417 162.632 28.3748 162.632 30.1734C162.632 30.2369 162.631 30.2994 162.629 30.362V36.371H159.719V35.6076C158.677 36.3061 157.425 36.713 156.077 36.713C154.268 36.713 152.63 35.979 151.443 34.7923C150.257 33.606 149.523 31.9729 149.523 30.1734C149.523 28.3748 150.257 26.7417 151.443 25.5555C152.63 24.3683 154.268 23.6338 156.077 23.6338ZM158.651 27.5845C157.993 26.9269 157.084 26.52 156.077 26.52C155.071 26.52 154.162 26.9269 153.504 27.5845C152.846 28.243 152.439 29.1579 152.439 30.1734C152.439 31.1893 152.846 32.1047 153.504 32.7633C154.162 33.4208 155.071 33.8273 156.077 33.8273C157.084 33.8273 157.993 33.4208 158.651 32.7633C159.31 32.1047 159.716 31.1893 159.716 30.1734C159.716 29.1579 159.31 28.243 158.651 27.5845Z" fill="#00B1DB"/>
</g>
<defs>
<radialGradient id="paint0_radial_2157_40588" cx="0" cy="0" r="1" gradientUnits="userSpaceOnUse" gradientTransform="translate(27.2399 29.0287) rotate(33.5959) scale(21.8711)">
<stop stop-color="#D5ECF3"/>
<stop offset="0.301961" stop-color="#00A0E3"/>
<stop offset="0.54902" stop-color="#005799"/>
<stop offset="0.741176" stop-color="#00467A"/>
<stop offset="1" stop-color="#00B1DB"/>
</radialGradient>
<radialGradient id="paint1_radial_2157_40588" cx="0" cy="0" r="1" gradientUnits="userSpaceOnUse" gradientTransform="translate(21.7605 21.3411) rotate(47.8222) scale(36.6607 36.0285)">
<stop stop-color="#FEFEFE"/>
<stop offset="0.329412" stop-color="#FEFEFE"/>
<stop offset="0.8" stop-color="#9D9E9E"/>
<stop offset="1" stop-color="#EBECEC"/>
</radialGradient>
<clipPath id="clip0_2157_40588">
<rect width="182" height="56" fill="white"/>
</clipPath>
</defs>
</svg>
