<svg width="182" height="58" viewBox="0 0 182 58" fill="none" xmlns="http://www.w3.org/2000/svg">
<g clip-path="url(#clip0_1611_35280)">
<path fill-rule="evenodd" clip-rule="evenodd" d="M31.5094 27.1033C32.3286 27.1033 32.9938 27.7681 32.9938 28.5877C32.9938 29.4069 32.3286 30.0708 31.5094 30.0708C30.6902 30.0708 30.0254 29.4069 30.0254 28.5877C30.0254 27.7681 30.6902 27.1033 31.5094 27.1033Z" fill="#FEFEFE"/>
<path fill-rule="evenodd" clip-rule="evenodd" d="M27.2479 29.2578C28.7016 29.2578 29.8801 30.4363 29.8801 31.89C29.8801 33.3442 28.7016 34.5232 27.2479 34.5232C25.7938 34.5232 24.6147 33.3442 24.6147 31.89C24.6147 30.4363 25.7938 29.2578 27.2479 29.2578Z" fill="#FEFEFE"/>
<path fill-rule="evenodd" clip-rule="evenodd" d="M27.2477 23.3368C27.8139 23.3368 28.2733 23.7957 28.2733 24.3623C28.2733 24.929 27.8139 25.3884 27.2477 25.3884C26.6815 25.3884 26.2217 24.929 26.2217 24.3623C26.2217 23.7957 26.6815 23.3368 27.2477 23.3368Z" fill="#FEFEFE"/>
<path fill-rule="evenodd" clip-rule="evenodd" d="M-0.14502 29.0077C-0.14502 44.137 12.1193 56.4004 27.2478 56.4004C42.3757 56.4004 54.6396 44.137 54.6396 29.0077C54.6396 13.8792 42.3757 1.61536 27.2478 1.61536C12.1193 1.61536 -0.14502 13.8792 -0.14502 29.0077ZM5.37866 29.0077C5.37866 16.9304 15.1705 7.13903 27.2478 7.13903C39.3245 7.13903 49.1154 16.9304 49.1154 29.0077C49.1154 41.0854 39.3245 50.8768 27.2478 50.8768C23.6997 50.8768 20.3503 50.0311 17.389 48.5327V40.9502C20.0669 43.1639 23.5015 44.494 27.2478 44.494C35.8 44.494 42.7331 37.5599 42.7331 29.0077C42.7331 21.8066 37.8174 15.7553 31.159 14.0226L29.9574 15.761V19.527C34.0846 20.7041 37.106 24.5033 37.106 29.0077C37.106 34.4529 32.6916 38.8664 27.2478 38.8664C21.8025 38.8664 17.389 34.4529 17.389 29.0077C17.389 24.5033 20.4109 20.7041 24.5376 19.527V15.761L23.3365 14.0226C16.6776 15.7553 11.7619 21.8066 11.7619 29.0077V44.4483C7.817 40.4937 5.37866 35.0354 5.37866 29.0077Z" fill="url(#paint0_radial_1611_35280)"/>
<path fill-rule="evenodd" clip-rule="evenodd" d="M115.643 36.3716C113.834 36.3716 112.194 35.637 111.009 34.4503C109.821 33.2646 109.088 31.631 109.088 29.832V23.8984H112.003V29.832C112.003 30.8474 112.411 31.7628 113.069 32.4213C113.726 33.0789 114.636 33.4859 115.643 33.4859H118.509V23.8984H121.424V36.3716H115.643Z" fill="white"/>
<path fill-rule="evenodd" clip-rule="evenodd" d="M87.8866 23.6339C89.6952 23.6339 91.3341 24.3684 92.5213 25.5556C93.707 26.7418 94.4406 28.3749 94.4406 30.1735C94.4406 31.9731 93.707 33.6062 92.5213 34.7924C91.3341 35.9791 89.6952 36.7131 87.8866 36.7131C86.0774 36.7131 84.439 35.9791 83.2513 34.7929C82.0666 33.6062 81.332 31.9731 81.332 30.1735C81.332 28.3749 82.0666 26.7418 83.2513 25.5556C84.439 24.3684 86.0774 23.6339 87.8866 23.6339ZM90.4591 27.5846C89.8025 26.927 88.8924 26.5201 87.8866 26.5201C86.8802 26.5201 85.9701 26.927 85.313 27.5846C84.655 28.2431 84.2476 29.1581 84.2476 30.1735C84.2476 31.1895 84.655 32.1049 85.313 32.7634C85.9701 33.421 86.8802 33.8274 87.8866 33.8274C88.8924 33.8274 89.8025 33.421 90.4591 32.7634C91.1191 32.1049 91.526 31.1895 91.526 30.1735C91.526 29.1581 91.1191 28.2431 90.4591 27.5846Z" fill="white"/>
<path fill-rule="evenodd" clip-rule="evenodd" d="M74.0082 23.6339C75.8173 23.6339 77.4557 24.3684 78.6434 25.5556C79.8286 26.7418 80.5627 28.3749 80.5627 30.1735C80.5627 31.9735 79.8286 33.6062 78.6434 34.7924C77.4557 35.9791 75.8173 36.7131 74.0082 36.7131C72.6622 36.7131 71.4111 36.3067 70.3692 35.6097V39.7027H67.4546V30.1735C67.4546 28.3745 68.1882 26.7418 69.3739 25.5556C70.5606 24.3684 72.1995 23.6339 74.0082 23.6339ZM76.5817 27.5846C75.9246 26.927 75.015 26.5201 74.0082 26.5201C73.0023 26.5201 72.0922 26.927 71.4356 27.5846C70.7771 28.2431 70.3692 29.1581 70.3692 30.1735C70.3692 31.1895 70.7771 32.1049 71.4356 32.7634C72.0922 33.421 73.0023 33.8274 74.0082 33.8274C75.015 33.8274 75.9246 33.421 76.5817 32.7634C77.2402 32.1049 77.6476 31.1895 77.6476 30.1735C77.6476 29.1581 77.2402 28.2431 76.5817 27.5846Z" fill="white"/>
<path fill-rule="evenodd" clip-rule="evenodd" d="M101.764 23.6339C103.573 23.6339 105.212 24.3684 106.398 25.5556C107.584 26.7418 108.319 28.3749 108.319 30.1735C108.319 31.9735 107.584 33.6061 106.398 34.7924C105.212 35.9791 103.573 36.7131 101.764 36.7131C99.9553 36.7131 98.3165 35.9791 97.1293 34.7929C95.9435 33.6061 95.21 31.9735 95.21 30.1735C95.21 30.086 95.2114 29.9984 95.2153 29.9109V25.4305L95.21 25.4219C95.21 23.6228 95.9435 21.9897 97.1293 20.804C98.3165 19.6163 99.9553 18.8828 101.764 18.8828C102.25 18.8828 102.722 18.7875 103.157 18.6076C103.594 18.4263 103.996 18.1593 104.338 17.8182L106.398 19.8472C105.784 20.4615 105.06 20.9416 104.273 21.2677C103.482 21.5948 102.631 21.768 101.764 21.768C100.758 21.768 99.8485 22.1749 99.191 22.8325C98.695 23.3284 98.341 23.9701 98.1972 24.6907C99.2237 24.0221 100.449 23.6339 101.764 23.6339ZM104.338 27.5846C103.68 26.927 102.77 26.5201 101.764 26.5201C100.758 26.5201 99.8485 26.927 99.191 27.5846C98.5329 28.2431 98.1255 29.1581 98.1255 30.1735C98.1255 31.1894 98.5329 32.1049 99.191 32.7634C99.8485 33.421 100.758 33.8274 101.764 33.8274C102.77 33.8274 103.68 33.421 104.338 32.7634C104.996 32.1049 105.403 31.1894 105.403 30.1735C105.403 29.1581 104.997 28.2431 104.338 27.5846Z" fill="white"/>
<path fill-rule="evenodd" clip-rule="evenodd" d="M132.43 30.174C132.617 30.3236 132.795 30.4833 132.963 30.6521C134.15 31.8383 134.883 33.4714 134.883 35.2705V36.3711H131.968V35.2705C131.968 34.255 131.56 33.3396 130.902 32.6811C130.245 32.024 129.335 31.6171 128.328 31.6171H125.461V36.3711H122.547V23.8984H125.461V28.7309H128.328C129.335 28.7309 130.245 28.3239 130.902 27.6668C131.56 27.0083 131.968 26.0929 131.968 25.0774H131.971V23.8984H134.88V25.0774H134.883C134.883 26.876 134.15 28.5096 132.963 29.6953C132.795 29.8647 132.617 30.0239 132.43 30.174Z" fill="white"/>
<path d="M142.973 26.7846C141.967 26.7846 141.057 27.1911 140.399 27.8491C139.741 28.5077 139.334 29.4226 139.334 30.438V36.3711H136.419V30.438C136.419 28.639 137.153 27.0064 138.339 25.8197C139.525 24.633 141.164 23.8989 142.973 23.8984H148.756V36.3711H145.84V26.7851H142.973L142.973 26.7846Z" fill="white"/>
<path d="M169.958 23.6339C171.767 23.6339 173.405 24.3684 174.592 25.5556C175.778 26.7418 176.511 28.3749 176.511 30.1735C176.511 31.973 175.778 33.6061 174.592 34.7924C173.405 35.9791 171.767 36.7131 169.958 36.7131C168.149 36.7131 166.509 35.9791 165.323 34.7924C164.137 33.6061 163.403 31.973 163.403 30.1735C163.403 30.085 163.404 29.9975 163.408 29.9089V25.4219H163.403C163.403 23.6228 164.137 21.9897 165.323 20.804C166.509 19.6163 168.149 18.8828 169.958 18.8828C170.442 18.8828 170.915 18.7875 171.349 18.6076C171.787 18.4263 172.19 18.1593 172.53 17.8182L174.592 19.8472C173.977 20.4615 173.253 20.9416 172.465 21.2677C171.675 21.5948 170.824 21.768 169.958 21.768C168.951 21.768 168.041 22.1749 167.383 22.8325C166.887 23.3284 166.535 23.9701 166.39 24.6907C167.417 24.0221 168.642 23.6339 169.958 23.6339ZM172.53 27.5846C171.873 26.927 170.963 26.5201 169.958 26.5201C168.951 26.5201 168.041 26.927 167.383 27.5846C166.725 28.2431 166.318 29.1581 166.318 30.1735C166.318 31.1894 166.725 32.1049 167.383 32.7634C168.041 33.421 168.951 33.8274 169.958 33.8274C170.963 33.8274 171.873 33.421 172.53 32.7634C173.189 32.1049 173.596 31.1894 173.596 30.1735C173.596 29.1581 173.189 28.2431 172.53 27.5846Z" fill="white"/>
<path d="M156.078 23.6339C157.887 23.6339 159.526 24.3684 160.713 25.5556C161.899 26.7418 162.633 28.3749 162.633 30.1735C162.633 30.237 162.632 30.2996 162.63 30.3621V36.3711H159.72V35.6077C158.678 36.3062 157.426 36.7131 156.078 36.7131C154.269 36.7131 152.631 35.9791 151.444 34.7924C150.258 33.6062 149.524 31.9731 149.524 30.1735C149.524 28.3749 150.258 26.7418 151.444 25.5556C152.631 24.3684 154.269 23.6339 156.078 23.6339ZM158.651 27.5846C157.994 26.927 157.085 26.5201 156.078 26.5201C155.072 26.5201 154.163 26.927 153.505 27.5846C152.847 28.2431 152.44 29.1581 152.44 30.1735C152.44 31.1895 152.847 32.1049 153.505 32.7634C154.163 33.421 155.072 33.8274 156.078 33.8274C157.085 33.8274 157.994 33.421 158.651 32.7634C159.311 32.1049 159.717 31.1895 159.717 30.1735C159.717 29.1581 159.311 28.2431 158.651 27.5846Z" fill="white"/>
</g>
<defs>
<radialGradient id="paint0_radial_1611_35280" cx="0" cy="0" r="1" gradientUnits="userSpaceOnUse" gradientTransform="translate(21.76 21.3413) rotate(47.8222) scale(36.6607 36.0285)">
<stop stop-color="#FEFEFE"/>
<stop offset="0.329412" stop-color="#FEFEFE"/>
<stop offset="0.8" stop-color="#9D9E9E"/>
<stop offset="1" stop-color="#EBECEC"/>
</radialGradient>
<clipPath id="clip0_1611_35280">
<rect width="182" height="58" fill="white"/>
</clipPath>
</defs>
</svg>
