<svg width="375" height="59" viewBox="0 0 375 59" fill="none" xmlns="http://www.w3.org/2000/svg">
<path d="M171.484 12.032L170.532 12.676C170.747 13.1053 171.022 13.5113 171.358 13.894C171.703 14.2673 172.1 14.5707 172.548 14.804C173.005 15.028 173.5 15.14 174.032 15.14C174.424 15.14 174.797 15.0747 175.152 14.944C175.516 14.8133 175.838 14.6267 176.118 14.384C176.407 14.1413 176.631 13.8473 176.79 13.502C176.958 13.1567 177.042 12.7693 177.042 12.34C177.042 11.892 176.963 11.5093 176.804 11.192C176.645 10.8653 176.44 10.59 176.188 10.366C175.945 10.1327 175.679 9.94133 175.39 9.792C175.101 9.64267 174.825 9.52133 174.564 9.428C173.995 9.232 173.542 9.036 173.206 8.84C172.879 8.63467 172.646 8.42 172.506 8.196C172.366 7.96267 172.296 7.71067 172.296 7.44C172.296 7.12267 172.417 6.838 172.66 6.586C172.903 6.32467 173.29 6.194 173.822 6.194C174.205 6.194 174.527 6.26867 174.788 6.418C175.059 6.56733 175.287 6.75867 175.474 6.992C175.661 7.22533 175.815 7.46333 175.936 7.706L176.958 7.118C176.799 6.77267 176.58 6.446 176.3 6.138C176.02 5.82067 175.679 5.564 175.278 5.368C174.886 5.16267 174.424 5.06 173.892 5.06C173.341 5.06 172.851 5.172 172.422 5.396C171.993 5.61067 171.657 5.90933 171.414 6.292C171.171 6.67467 171.05 7.10867 171.05 7.594C171.05 8.042 171.134 8.42 171.302 8.728C171.479 9.036 171.703 9.29733 171.974 9.512C172.245 9.71733 172.529 9.89 172.828 10.03C173.127 10.1607 173.397 10.268 173.64 10.352C174.013 10.4827 174.363 10.632 174.69 10.8C175.026 10.9587 175.297 11.1687 175.502 11.43C175.707 11.6913 175.81 12.0413 175.81 12.48C175.81 12.928 175.651 13.2967 175.334 13.586C175.017 13.8753 174.597 14.02 174.074 14.02C173.682 14.02 173.332 13.936 173.024 13.768C172.716 13.6 172.436 13.3667 172.184 13.068C171.941 12.7693 171.708 12.424 171.484 12.032ZM179.224 11.78C179.224 11.332 179.317 10.9353 179.504 10.59C179.7 10.2353 179.961 9.96 180.288 9.764C180.624 9.568 181.002 9.47 181.422 9.47C181.767 9.47 182.089 9.526 182.388 9.638C182.696 9.74067 182.962 9.88067 183.186 10.058C183.41 10.2353 183.569 10.4313 183.662 10.646V9.246C183.438 8.98467 183.116 8.784 182.696 8.644C182.285 8.49467 181.861 8.42 181.422 8.42C180.797 8.42 180.232 8.56467 179.728 8.854C179.224 9.14333 178.823 9.54 178.524 10.044C178.235 10.548 178.09 11.1267 178.09 11.78C178.09 12.424 178.235 13.0027 178.524 13.516C178.823 14.02 179.224 14.4167 179.728 14.706C180.232 14.9953 180.797 15.14 181.422 15.14C181.861 15.14 182.285 15.07 182.696 14.93C183.116 14.7807 183.438 14.5753 183.662 14.314V12.914C183.569 13.1193 183.41 13.3153 183.186 13.502C182.962 13.6793 182.696 13.824 182.388 13.936C182.089 14.0387 181.767 14.09 181.422 14.09C181.002 14.09 180.624 13.992 180.288 13.796C179.961 13.5907 179.7 13.3153 179.504 12.97C179.317 12.6247 179.224 12.228 179.224 11.78ZM186.525 8.56H185.405V15H186.525V8.56ZM188.471 9.792L189.087 8.868C188.919 8.69067 188.733 8.574 188.527 8.518C188.331 8.45267 188.117 8.42 187.883 8.42C187.585 8.42 187.291 8.53667 187.001 8.77C186.712 9.00333 186.474 9.32067 186.287 9.722C186.11 10.114 186.021 10.5667 186.021 11.08H186.525C186.525 10.772 186.553 10.4967 186.609 10.254C186.675 10.0113 186.787 9.82 186.945 9.68C187.104 9.54 187.323 9.47 187.603 9.47C187.79 9.47 187.944 9.498 188.065 9.554C188.187 9.60067 188.322 9.68 188.471 9.792ZM189.439 11.78C189.439 12.424 189.584 13.0027 189.873 13.516C190.172 14.02 190.573 14.4167 191.077 14.706C191.581 14.9953 192.146 15.14 192.771 15.14C193.406 15.14 193.971 14.9953 194.465 14.706C194.969 14.4167 195.366 14.02 195.655 13.516C195.954 13.0027 196.103 12.424 196.103 11.78C196.103 11.1267 195.954 10.548 195.655 10.044C195.366 9.54 194.969 9.14333 194.465 8.854C193.971 8.56467 193.406 8.42 192.771 8.42C192.146 8.42 191.581 8.56467 191.077 8.854C190.573 9.14333 190.172 9.54 189.873 10.044C189.584 10.548 189.439 11.1267 189.439 11.78ZM190.573 11.78C190.573 11.332 190.667 10.9353 190.853 10.59C191.049 10.2353 191.311 9.96 191.637 9.764C191.973 9.568 192.351 9.47 192.771 9.47C193.191 9.47 193.565 9.568 193.891 9.764C194.227 9.96 194.489 10.2353 194.675 10.59C194.871 10.9353 194.969 11.332 194.969 11.78C194.969 12.228 194.871 12.6247 194.675 12.97C194.489 13.3153 194.227 13.5907 193.891 13.796C193.565 13.992 193.191 14.09 192.771 14.09C192.351 14.09 191.973 13.992 191.637 13.796C191.311 13.5907 191.049 13.3153 190.853 12.97C190.667 12.6247 190.573 12.228 190.573 11.78ZM197.642 4.08V15H198.762V4.08H197.642ZM200.868 4.08V15H201.988V4.08H200.868Z" fill="white"/>
<path fill-rule="evenodd" clip-rule="evenodd" d="M192.983 46.0853C201.755 54.8579 213.653 59.7863 226.06 59.7863H338C358.435 59.7863 375 76.3518 375 96.7863C375 117.221 358.435 133.786 338 133.786H37C16.5655 133.786 0 117.221 0 96.7863C0 76.3518 16.5655 59.7863 37 59.7863H148.592C160.998 59.7863 172.896 54.8579 181.669 46.0853C184.793 42.9611 189.858 42.9611 192.983 46.0853Z" fill="#F8FAFE"/>
</svg>
