<svg width="227" height="191" viewBox="0 0 227 191" fill="none" xmlns="http://www.w3.org/2000/svg">
<g filter="url(#filter0_b_1606_33920)">
<path d="M1.33792 99.267C-0.094012 96.9598 -0.0940134 94.0402 1.33792 91.733L28.2225 48.415L54.1517 4.24469C55.4493 2.03427 57.8316 0.688459 60.3945 0.717984L113.5 1.33L166.605 0.71798C169.168 0.688454 171.551 2.03426 172.848 4.24468L198.778 48.415L225.662 91.733C227.094 94.0402 227.094 96.9598 225.662 99.267L198.778 142.585L172.848 186.755C171.551 188.966 169.168 190.312 166.605 190.282L113.5 189.67L60.3946 190.282C57.8316 190.312 55.4493 188.966 54.1517 186.755L28.2225 142.585L1.33792 99.267Z" fill="#0C5DF9" fill-opacity="0.25"/>
<path d="M28.6473 48.6787L28.6474 48.6788L28.6537 48.6681L54.5829 4.49782C55.7896 2.44211 58.0052 1.19049 60.3888 1.21795L113.494 1.8301L113.506 1.82997L166.611 1.21795C168.995 1.19048 171.21 2.4421 172.417 4.49781L198.346 48.6681L198.346 48.6682L198.353 48.6787L225.237 91.9966C226.569 94.1424 226.569 96.8576 225.237 99.0033L198.353 142.321L198.353 142.321L198.346 142.332L172.417 186.502C171.21 188.558 168.995 189.81 166.611 189.782L113.506 189.17L113.506 189.17L113.494 189.17L60.3888 189.782C58.0052 189.81 55.7896 188.558 54.5829 186.502L28.6537 142.332L28.6538 142.332L28.6473 142.321L1.76275 99.0033C0.431045 96.8576 0.431043 94.1424 1.76275 91.9967L28.6473 48.6787Z" stroke="white" stroke-opacity="0.4"/>
</g>
<defs>
<filter id="filter0_b_1606_33920" x="-60.5396" y="-60.0862" width="348.079" height="311.172" filterUnits="userSpaceOnUse" color-interpolation-filters="sRGB">
<feFlood flood-opacity="0" result="BackgroundImageFix"/>
<feGaussianBlur in="BackgroundImageFix" stdDeviation="30.4019"/>
<feComposite in2="SourceAlpha" operator="in" result="effect1_backgroundBlur_1606_33920"/>
<feBlend mode="normal" in="SourceGraphic" in2="effect1_backgroundBlur_1606_33920" result="shape"/>
</filter>
</defs>
</svg>
