<svg width="227" height="191" viewBox="0 0 227 191" fill="none" xmlns="http://www.w3.org/2000/svg">
<g filter="url(#filter0_b_1606_33978)">
<path d="M1.33792 99.2671C-0.094012 96.9599 -0.0940134 94.0403 1.33792 91.7331L28.2225 48.4151L54.1517 4.24474C55.4493 2.03434 57.8316 0.688513 60.3945 0.718049L113.5 1.33006L166.605 0.718045C169.168 0.688508 171.551 2.03433 172.848 4.24474L198.778 48.4151L225.662 91.733C227.094 94.0403 227.094 96.9598 225.662 99.2671L198.778 142.585L172.848 186.755C171.551 188.966 169.168 190.312 166.605 190.282L113.5 189.67L60.3946 190.282C57.8316 190.312 55.4493 188.966 54.1517 186.755L28.2225 142.585L1.33792 99.2671Z" fill="white" fill-opacity="0.48"/>
<path d="M28.6473 48.6787L28.6474 48.6788L28.6537 48.6682L54.5829 4.49786C55.7896 2.44217 58.0052 1.19055 60.3888 1.21801L113.494 1.83016L113.506 1.83003L166.611 1.21801C168.995 1.19054 171.21 2.44216 172.417 4.49786L198.346 48.6682L198.346 48.6683L198.353 48.6787L225.237 91.9967C226.569 94.1424 226.569 96.8577 225.237 99.0034L198.353 142.321L198.353 142.321L198.346 142.332L172.417 186.502C171.21 188.558 168.995 189.81 166.611 189.782L113.506 189.17L113.506 189.17L113.494 189.17L60.3888 189.782C58.0052 189.81 55.7896 188.558 54.5829 186.502L28.6537 142.332L28.6538 142.332L28.6473 142.321L1.76276 99.0034C0.431044 96.8577 0.431043 94.1424 1.76275 91.9967L28.6473 48.6787Z" stroke="white" stroke-opacity="0.8"/>
</g>
<defs>
<filter id="filter0_b_1606_33978" x="-60.5396" y="-60.0862" width="348.079" height="311.172" filterUnits="userSpaceOnUse" color-interpolation-filters="sRGB">
<feFlood flood-opacity="0" result="BackgroundImageFix"/>
<feGaussianBlur in="BackgroundImageFix" stdDeviation="30.4019"/>
<feComposite in2="SourceAlpha" operator="in" result="effect1_backgroundBlur_1606_33978"/>
<feBlend mode="normal" in="SourceGraphic" in2="effect1_backgroundBlur_1606_33978" result="shape"/>
</filter>
</defs>
</svg>
