<?xml version="1.0" standalone="no"?>
<!DOCTYPE svg PUBLIC "-//W3C//DTD SVG 1.1//EN" "http://www.w3.org/Graphics/SVG/1.1/DTD/svg11.dtd" >
<svg xmlns="http://www.w3.org/2000/svg">
<metadata>Generated by IcoMoon</metadata>
<defs>
<font id="icomoon" horiz-adv-x="1024">
<font-face units-per-em="1024" ascent="960" descent="-64" />
<missing-glyph horiz-adv-x="1024" />
<glyph unicode="&#x20;" horiz-adv-x="512" d="" />
<glyph unicode="&#xe900;" glyph-name="physics" horiz-adv-x="931" d="M467.703 932.25c48.44 0 92.444-19.824 124.337-51.701 26.396-26.378 44.446-60.976 49.911-99.515 36.101 14.47 75.176 16.207 111.067 6.536 10.799-2.811 21.276-6.823 31.409-11.676 13.81 8.632 30.068 13.538 47.476 13.538 24.893 0 47.369-10.046 63.558-26.342 16.277-16.225 26.396-38.771 26.396-63.555 0-24.839-10.119-47.385-26.396-63.555-3.728-3.85-7.88-7.306-12.288-10.422 0.735-17.962-1.271-35.923-5.893-53.222-9.635-35.96-30.548-68.982-61.263-92.996 30.715-24.106 51.628-57 61.263-92.905 11.608-43.501 6.791-91.35-17.459-133.311l-23.403 13.377 23.491-13.535c-0.34-0.61-0.698-1.164-1.108-1.704-24.232-41.007-62.892-68.534-105.784-80.1-35.891-9.654-74.966-7.936-111.067 6.572-5.464-38.558-23.515-73.193-49.911-99.444-10.263-10.403-21.848-19.321-34.351-26.899-0.661-23.962-10.598-45.559-26.359-61.245-16.277-16.333-38.791-26.359-63.628-26.359-24.875 0-47.279 10.026-63.575 26.359-15.759 15.686-25.68 37.283-26.289 61.245-12.589 7.578-24.14 16.496-34.437 26.899-26.254 26.252-44.413 60.886-49.911 99.37-36.157-14.485-75.035-16.151-111.013-6.498-43.5 11.711-82.629 39.824-106.841 81.962-24.266 41.961-29.137 89.809-17.496 133.311 9.635 36.045 30.641 68.98 61.318 92.993-30.677 23.998-51.683 56.948-61.318 92.908-3.725 14.040-5.748 28.635-5.981 43.212-6.107 3.725-11.748 8.058-16.727 13.127-16.261 16.224-26.325 38.771-26.325 63.537 0 24.892 10.064 47.331 26.325 63.627 16.296 16.278 38.753 26.342 63.592 26.342 15.598 0 30.265-3.957 42.998-10.924 12.768 7.092 26.415 12.571 40.455 16.314 35.977 9.67 74.856 7.933 111.013-6.483 5.498 38.485 23.657 73.083 49.911 99.461 31.877 31.876 75.931 51.701 124.301 51.701zM541.091 105.616c4.44 3.384 8.648 7.019 12.591 10.924 22.081 22.025 35.798 52.527 35.798 85.979v3.416l-121.777 70.326-121.759-70.181v-3.561c0-33.452 13.789-63.953 35.834-85.979 3.94-3.905 8.148-7.54 12.5-10.924 2.973 4.157 6.25 8.057 9.849 11.66 16.296 16.296 38.7 26.34 63.575 26.34 24.837 0 47.351-10.045 63.628-26.34 3.565-3.603 6.861-7.503 9.761-11.66zM492.954 78.862c-6.465 6.502-15.402 10.477-25.251 10.477-9.815 0-18.769-3.975-25.197-10.477-6.411-6.358-10.441-15.309-10.441-25.195s4.029-18.735 10.441-25.214c6.429-6.339 15.383-10.459 25.197-10.459 9.849 0 18.786 4.119 25.251 10.459 6.465 6.479 10.44 15.327 10.44 25.214s-3.975 18.837-10.44 25.195zM748.2 732.361c-3.063 1.092-6.088 2.060-9.207 2.883-29.584 7.969-61.98 4.925-90.419-10.834-0.605-0.394-1.215-0.788-1.894-1.2l-2.974-1.63v-140.667l121.809-70.36 0.735 0.411c0.68 0.573 1.452 1.057 2.076 1.469h0.056c28.993 16.654 48.514 43.767 56.553 73.942 2.025 7.683 3.314 15.329 3.854 23.316-23.571 0.788-44.861 10.655-60.463 26.289-16.24 16.171-26.307 38.717-26.307 63.555 0 11.551 2.206 22.636 6.181 32.825zM857.19 724.732c-6.465 6.465-15.369 10.476-25.288 10.476-9.812 0-18.679-4.012-25.195-10.476-6.433-6.483-10.445-15.329-10.445-25.196s4.012-18.768 10.445-25.232c6.516-6.483 15.383-10.405 25.195-10.405 9.919 0 18.823 3.922 25.288 10.405 6.372 6.465 10.333 15.365 10.333 25.232s-3.961 18.714-10.333 25.196zM107.317 602.725c0.68-5.605 1.719-11.049 3.187-16.35 7.987-29.566 26.809-56.124 54.62-72.903 0.645-0.287 1.307-0.699 1.97-1.039l-3.008-5.211 3.008 5.104 2.919-1.772 121.758 70.36v140.667l-2.991 1.755c-28.904 16.654-62.142 20.021-92.353 11.909-5.355-1.415-10.566-3.295-15.741-5.372 5.319-11.443 8.292-24.158 8.292-37.66 0-24.767-10.065-47.313-26.379-63.537-14.47-14.488-33.757-23.997-55.283-25.949zM124.276 717.48c-6.519 6.519-15.384 10.476-25.251 10.476-9.832 0-18.75-3.957-25.215-10.476-6.465-6.429-10.476-15.365-10.476-25.268 0-9.814 4.011-18.66 10.476-25.143 6.465-6.501 15.383-10.458 25.215-10.458 9.867 0 18.732 3.958 25.251 10.458 6.447 6.483 10.422 15.329 10.422 25.143 0 9.903-3.975 18.839-10.422 25.268zM467.703 569.38c24.837 0 47.351-10.136 63.628-26.361 16.277-16.35 26.359-38.806 26.359-63.592 0-24.874-10.082-47.332-26.359-63.646-16.277-16.296-38.791-26.321-63.628-26.321-24.875 0-47.279 10.026-63.575 26.321-16.225 16.314-26.379 38.772-26.379 63.646 0 24.786 10.154 47.242 26.379 63.592 16.296 16.225 38.7 26.361 63.575 26.361zM492.954 504.571c-6.465 6.519-15.402 10.494-25.251 10.494-9.815 0-18.769-3.975-25.197-10.494-6.411-6.411-10.441-15.313-10.441-25.144 0-9.812 4.029-18.818 10.441-25.283 6.429-6.377 15.383-10.44 25.197-10.44 9.849 0 18.786 4.063 25.251 10.44 6.465 6.465 10.44 15.472 10.44 25.283 0 9.83-3.975 18.733-10.44 25.144zM413.655 307.423l-67.711 39.094v-78.117l67.711 39.024zM291.772 230.544l-2.865 4.976 2.865 1.559v140.758l-121.758 70.307-2.919-1.704c-29.029-16.761-48.495-43.804-56.59-73.975-8.058-30.231-4.728-63.521 11.945-92.551 16.708-28.849 43.839-48.333 73.979-56.446 29.71-7.917 62.356-4.799 90.956 11.245 0.484 0.233 0.931 0.554 1.397 0.898l2.991-5.069zM224.132 479.427l67.64-39v78.077l-67.64-39.076zM345.944 612.234l67.657 39.057-67.657 38.986v-78.043zM467.703 682.505l121.777 70.271v3.438c0 33.47-13.717 63.913-35.798 85.994-22.081 22.027-52.527 35.798-85.979 35.798-33.417 0-63.861-13.771-85.924-35.798-22.045-22.081-35.834-52.524-35.834-85.994v-3.438l121.759-70.271zM589.48 690.277l-67.607-38.986 67.607-39.057v78.043zM467.703 620.042l-121.759-70.325v-140.685l121.81-70.251 121.726 70.163v140.774l-121.777 70.325zM643.705 440.283l67.64 39.056-67.64 39.165v-78.221zM771.389 451.672l-0.051-0.093-3.011-5.139-2.988 1.704-121.633-70.218v-140.777l1.289-0.787c0.61-0.233 1.075-0.447 1.685-0.749l-0.037-0.093v-0.088c28.919-16.742 62.143-20.038 92.351-11.962 29.622 7.969 56.376 26.987 73.118 55.175 0.219 0.521 0.521 0.968 0.791 1.434h0.126c16.705 28.919 20.001 62.157 11.906 92.388-7.913 29.528-26.698 56.157-54.547 72.886-0.698 0.303-1.378 0.605-2.062 1.019l3.063 5.302zM589.48 346.587l-67.677-39.019 67.677-39.131v78.15z" />
<glyph unicode="&#xe901;" glyph-name="maths" horiz-adv-x="878" d="M418.333 398.199h-105.942v69.734h105.942v109.708h67.332v-109.708h105.924v-69.734h-105.924v-109.724h-67.332v109.724zM578.228-27.453h281.956v83.768h-192.707c-5.647 171.184 65.663 247.74 132.676 349.95 39.117 59.767 58.758 147.186 58.758 188.652v177.753c0 111.416-62.401 150.744-113.054 150.744h-49.976c-101.030 0-118.155-100.962-118.155-150.744v-170.272h85.977v179.346c0 18.421 10.186 53.182 54.652 53.901 45.909 0.738 54.633-40.96 54.633-53.901v-198.641c0-70.864-39.926-123.814-76.566-178.959-53.316-80.15-118.194-181.619-118.194-313.144v-118.452zM17.978-27.453h281.974v83.768h-192.729c-5.685 171.184 65.663 247.74 132.657 349.95 39.154 59.767 58.797 147.186 58.797 188.652v177.753c0 111.416-62.417 150.744-113.053 150.744h-49.96c-101.045 0-118.155-100.962-118.155-150.744v-170.272h85.943v179.346c0 18.421 10.187 53.182 54.65 53.901 45.926 0.738 54.594-40.96 54.594-53.901v-198.641c0-70.864-39.904-123.814-76.525-178.959-53.281-80.15-118.193-181.619-118.193-313.144v-118.452z" />
<glyph unicode="&#xe902;" glyph-name="chemistry" d="M424.050 221.007l0.020 0.051 0.087 0.433 0.087 0.331 50.464 188.849-189.649-50.621c-33.129-7.79-67.886-7.014-100.703 2.253-31.882 9.023-61.859 26.045-86.745 50.932-25.007 24.919-41.909 54.898-50.932 86.796-9.386 32.906-10.096 67.609-2.286 100.686 3.291 14.184 17.474 23.033 31.726 19.76 14.184-3.273 22.998-17.491 19.725-31.743-5.802-24.47-5.213-50.204 1.645-74.414 6.546-23.241 19.102-45.202 37.51-63.59 18.409-18.464 40.368-30.984 63.591-37.494 24.176-6.892 49.668-7.519 74.086-1.855l217.722 58.222 58.116 217.722c5.715 24.384 5.128 49.979-1.749 74.086-6.546 23.188-19.050 45.148-37.494 63.591-18.389 18.391-40.365 30.878-63.555 37.545-24.245 6.823-49.979 7.412-74.501 1.559-14.184-3.221-28.384 5.576-31.692 19.777-3.325 14.201 5.49 28.384 19.708 31.692 33.129 7.845 67.888 7.135 100.754-2.2 31.831-9.074 61.755-26.063 86.693-50.914 24.974-25.024 41.96-54.967 51.003-86.814 9.248-32.817 10.059-67.609 2.269-100.703v-0.069l-0.087-0.243-0.122-0.467-50.464-188.869 189.716 50.672c33.095 7.759 67.836 6.944 100.651-2.304 31.866-8.988 61.806-25.974 86.729-50.964 24.954-24.836 41.925-54.918 50.968-86.749 9.299-32.851 10.079-67.623 2.284-100.683-3.308-14.253-17.526-23.103-31.744-19.759-14.218 3.324-23.048 17.506-19.744 31.689 5.75 24.576 5.23 50.259-1.662 74.504-6.561 23.17-19.066 45.182-37.51 63.626-18.424 18.373-40.401 30.858-63.59 37.49-24.143 6.79-49.684 7.467-74.102 1.717l-217.687-58.136-58.171-217.722c-5.699-24.367-5.108-49.979 1.733-74.051 6.561-23.19 19.117-45.111 37.51-63.59 18.46-18.444 40.42-30.964 63.661-37.494 24.225-6.908 49.908-7.428 74.449-1.611 14.167 3.237 28.384-5.593 31.724-19.81 3.257-14.218-5.557-28.384-19.759-31.779-33.075-7.794-67.832-7.030-100.738 2.339-31.831 9.023-61.822 25.974-86.693 50.948-24.99 24.852-41.976 54.898-50.964 86.729-9.354 32.815-10.114 67.608-2.288 100.651zM832.803 426.602c10.374 10.287 27.14 10.287 37.494 0 10.323-10.338 10.323-27.101 0-37.423l-299.477-299.477c-10.394-10.323-27.085-10.323-37.459 0-10.303 10.354-10.303 27.12 0 37.459l299.441 299.441zM850.849 300.166c10.323 10.323 27.069 10.323 37.356 0 10.374-10.338 10.374-27.12 0-37.443l-190.964-190.98c-10.374-10.354-27.085-10.354-37.408 0-10.323 10.338-10.323 27.136 0 37.459l191.015 190.964zM706.454 444.581c10.323 10.338 27.018 10.338 37.408 0 10.303-10.323 10.303-27.089 0-37.408l-191.035-190.964c-10.303-10.374-27.085-10.374-37.439 0-10.323 10.236-10.323 27.085 0 37.337l191.067 191.035zM453.179 806.229c10.338 10.356 27.049 10.356 37.408 0 10.338-10.304 10.338-27.016 0-37.372l-299.426-299.494c-10.287-10.338-27.085-10.338-37.406 0-10.391 10.323-10.391 27.136 0 37.439l299.425 299.427zM471.174 679.843c10.287 10.356 27.065 10.356 37.408 0 10.319-10.374 10.319-27.103 0-37.459l-190.966-190.966c-10.356-10.319-27.12-10.319-37.459 0-10.304 10.374-10.304 27.018 0 37.408l191.017 191.017zM326.725 824.257c10.39 10.27 27.119 10.27 37.458 0 10.304-10.356 10.304-27.085 0-37.476l-190.982-190.947c-10.373-10.322-27.103-10.322-37.493 0-10.27 10.321-10.27 27.171 0 37.389l191.016 191.034z" />
<glyph unicode="&#xe903;" glyph-name="biology" horiz-adv-x="942" d="M879.055 253.764v57.541c13.292 4.17 25.141 11.481 34.718 21.078 15.495 15.528 25.072 36.868 25.072 60.457 0 23.712-9.576 44.999-25.072 60.51-15.458 15.507-36.864 25.125-60.506 25.125-22.282 0-42.484-8.655-57.717-22.577-16.593 9.593-33.272 19.19-49.865 28.873 1.29 5.951 2.044 12.145 2.044 18.461 0 23.589-9.581 45.031-25.039 60.474-9.613 9.579-21.443 16.837-34.701 21.042v57.613c13.259 4.187 25.088 11.533 34.701 21.077 15.458 15.511 25.039 36.902 25.039 60.491 0 23.659-9.581 44.998-25.039 60.474-15.528 15.511-36.901 25.090-60.506 25.090-22.282 0-42.537-8.584-57.77-22.56-16.589 9.596-33.235 19.21-49.861 28.789 1.307 6.037 2.073 12.179 2.073 18.529 0 23.589-9.56 44.998-25.121 60.509-15.442 15.459-36.852 25.037-60.441 25.037-23.622 0-45.064-9.579-60.49-25.037-15.491-15.511-25.053-36.92-25.053-60.509 0-6.368 0.716-12.597 2.024-18.529l-49.864-28.789c-15.214 13.976-35.453 22.56-57.751 22.56-23.589 0-45.014-9.579-60.49-25.090-15.476-15.476-25.089-36.815-25.089-60.474 0-23.589 9.614-44.98 25.089-60.491 9.614-9.544 21.495-16.924 34.755-21.077-0.070-19.227-0.070-38.368-0.070-57.543-13.242-4.17-25.072-11.533-34.685-21.112-15.476-15.443-25.089-36.885-25.089-60.474 0-6.386 0.803-12.579 2.076-18.547l-49.829-28.787c-15.249 13.922-35.505 22.577-57.786 22.577-23.606 0-44.997-9.617-60.472-25.125-15.511-15.512-25.072-36.798-25.072-60.51 0-23.589 9.561-44.929 25.072-60.457 9.579-9.597 21.425-16.908 34.668-21.078v-57.541c-13.243-4.153-25.089-11.465-34.668-21.025-15.511-15.528-25.072-36.921-25.072-60.563 0-23.605 9.561-45.015 25.072-60.506 15.476-15.479 36.866-25.072 60.472-25.072 22.28 0 42.537 8.671 57.786 22.577l49.829-28.791c-1.273-5.968-2.076-12.177-2.076-18.53 0-23.605 9.614-45.031 25.089-60.543 15.476-15.421 36.901-25.088 60.49-25.088 23.641 0 45.049 9.667 60.507 25.088 15.51 15.512 25.054 36.938 25.054 60.543 0 6.353-0.715 12.546-2.024 18.477 16.61 9.634 33.22 19.231 49.83 28.844 15.266-13.906 35.451-22.577 57.766-22.577 22.266 0 42.537 8.671 57.7 22.577 16.642-9.613 33.288-19.21 49.918-28.844-1.343-5.931-2.060-12.124-2.060-18.477 0-23.605 9.597-45.031 25.018-60.543 15.495-15.421 36.954-25.088 60.543-25.088 23.605 0 44.978 9.667 60.506 25.088 15.458 15.512 25.039 36.938 25.039 60.543 0 6.353-0.754 12.562-2.044 18.53l49.865 28.791c15.217-13.906 35.434-22.577 57.717-22.577 23.642 0 45.048 9.593 60.506 25.072 15.495 15.491 25.072 36.901 25.072 60.506 0 23.642-9.576 45.036-25.072 60.563-9.576 9.56-21.426 16.871-34.718 21.025zM792.809 232.739c-15.507-15.528-25.088-36.921-25.088-60.563 0-6.365 0.733-12.509 2.060-18.51l-49.832-28.807c-15.266 13.959-35.537 22.544-57.766 22.544-22.262 0-42.484-8.569-57.75-22.475-31.511 18.166-15.479 8.864-49.881 28.738 1.307 6.001 2.073 12.145 2.073 18.51 0 23.642-9.56 45.036-25.121 60.563-9.564 9.56-21.443 16.871-34.599 21.025v57.541c13.156 4.17 25.035 11.481 34.599 21.078 15.561 15.528 25.121 36.868 25.121 60.457 0 6.402-0.766 12.562-2.073 18.563 16.642 9.597 33.272 19.177 49.881 28.791 15.266-13.959 35.488-22.577 57.75-22.577 22.229 0 42.447 8.618 57.696 22.487 31.478-18.125 15.548-8.88 49.902-28.701-1.327-6.001-2.060-12.161-2.060-18.563 0-23.589 9.581-44.929 25.088-60.457 9.527-9.597 21.393-16.908 34.652-21.078v-57.541c-13.259-4.153-25.125-11.465-34.652-21.025zM410.575 232.739c-15.491-15.528-25.053-36.921-25.053-60.563 0-6.365 0.716-12.509 2.024-18.51-34.336-19.874-18.407-10.572-49.952-28.738-15.179 13.906-35.366 22.475-57.663 22.475-22.28 0-42.519-8.585-57.716-22.544l-49.882 28.807c1.274 6.001 2.041 12.145 2.041 18.51 0 23.642-9.578 45.036-25.019 60.563-9.614 9.56-21.46 16.871-34.72 21.025v57.541c13.26 4.17 25.106 11.481 34.72 21.078 15.441 15.528 25.019 36.868 25.019 60.457 0 6.402-0.768 12.562-2.041 18.6l49.882 28.754c15.197-13.89 35.435-22.577 57.716-22.577 22.297 0 42.484 8.618 57.663 22.577 16.68-9.613 33.325-19.194 49.952-28.791-1.308-6.001-2.024-12.161-2.024-18.563 0-23.589 9.561-44.929 25.053-60.457 9.597-9.597 21.443-16.908 34.669-21.078v-57.541c-13.226-4.153-25.072-11.465-34.669-21.025zM305.718 584.817c0 19.175-0.018 38.315-0.018 57.543 13.277 4.135 25.142 11.533 34.738 21.077 15.51 15.511 25.054 36.902 25.054 60.491 0 6.368-0.75 12.545-2.024 18.547l49.83 28.772c15.266-13.958 35.451-22.578 57.766-22.578 22.266 0 42.484 8.602 57.684 22.525 34.353-19.838 18.125-10.399 49.934-28.719-1.343-6.002-2.060-12.178-2.060-18.547 0-23.589 9.597-44.98 25.018-60.491 9.597-9.544 21.443-16.889 34.738-21.077v-57.56c-13.296-4.257-25.141-11.515-34.738-21.094-15.421-15.443-25.018-36.885-25.018-60.474 0-6.316 0.717-12.509 2.060-18.461-16.63-9.683-33.276-19.28-49.918-28.873-15.217 13.922-35.434 22.577-57.7 22.577-22.315 0-42.5-8.655-57.766-22.577-16.61 9.593-33.22 19.19-49.83 28.873 1.309 5.951 2.024 12.145 2.024 18.461 0 23.589-9.544 45.031-25.054 60.474-9.579 9.579-21.461 16.942-34.72 21.112zM495.055 368.882c-6.124-6.156-14.655-9.978-23.99-9.978-9.351 0-17.9 3.822-24.007 9.978-6.177 6.128-9.925 14.586-9.925 23.958 0 9.404 3.748 17.883 9.925 24.027 6.107 6.070 14.655 9.925 24.007 9.925 9.335 0 17.867-3.854 23.99-9.925 6.144-6.144 9.945-14.623 9.945-24.027 0-9.372-3.801-17.83-9.945-23.958zM853.266 426.791c9.368 0 17.883-3.854 24.007-9.925 6.16-6.144 9.929-14.623 9.929-24.027 0-9.372-3.768-17.83-9.929-23.958-6.124-6.156-14.639-9.978-24.007-9.978-9.388 0-17.85 3.822-24.027 9.978-6.124 6.128-9.908 14.586-9.908 23.958 0 9.404 3.785 17.883 9.908 24.027 6.177 6.070 14.639 9.925 24.027 9.925zM686.121 479.203c-6.054-6.124-14.619-9.925-23.937-9.925-9.388 0-17.83 3.801-24.027 9.925-6.156 6.177-9.945 14.623-9.945 24.027 0 9.318 3.789 17.834 9.945 23.99 6.197 6.124 14.639 9.875 24.027 9.875 9.318 0 17.883-3.752 23.937-9.875 6.16-6.156 9.945-14.672 9.945-23.99 0-9.404-3.785-17.85-9.945-24.027zM662.184 757.881c9.318 0 17.883-3.856 23.937-9.963 6.16-6.159 9.945-14.621 9.945-23.991 0-9.352-3.785-17.884-9.945-23.991-6.054-6.142-14.619-9.928-23.937-9.928-9.388 0-17.83 3.786-24.027 9.928-6.156 6.107-9.945 14.639-9.945 23.991 0 9.369 3.789 17.832 9.945 23.991 6.197 6.107 14.639 9.963 24.027 9.963zM447.058 858.258c6.107 6.089 14.655 9.893 24.007 9.893 9.335 0 17.867-3.804 23.99-9.893 6.144-6.124 9.945-14.604 9.945-24.008 0-9.387-3.801-17.866-9.945-23.956-6.124-6.229-14.655-9.98-23.99-9.98-9.351 0-17.9 3.751-24.007 9.98-6.177 6.090-9.925 14.569-9.925 23.956 0 9.404 3.748 17.884 9.925 24.008zM255.907 747.918c6.194 6.107 14.638 9.963 24.025 9.963 9.369 0 17.866-3.856 24.007-9.963 6.159-6.159 9.927-14.621 9.927-23.991 0-9.352-3.769-17.884-9.927-23.991-6.142-6.142-14.638-9.928-24.007-9.928-9.387 0-17.831 3.786-24.025 9.928-6.072 6.107-9.91 14.639-9.91 23.991 0 9.369 3.838 17.832 9.91 23.991zM255.907 527.221c6.194 6.124 14.638 9.875 24.025 9.875 9.369 0 17.866-3.752 24.007-9.875 6.159-6.156 9.927-14.672 9.927-23.99 0-9.404-3.769-17.85-9.927-24.027-6.142-6.124-14.638-9.925-24.007-9.925-9.387 0-17.831 3.801-24.025 9.925-6.072 6.177-9.91 14.623-9.91 24.027 0 9.318 3.838 17.834 9.91 23.99zM64.824 416.866c6.159 6.070 14.638 9.925 23.99 9.925 9.386 0 17.884-3.854 23.99-9.925 6.124-6.144 9.945-14.623 9.945-24.027 0-9.372-3.821-17.83-9.945-23.958-6.106-6.156-14.603-9.978-23.99-9.978-9.352 0-17.831 3.822-23.99 9.978-6.141 6.128-9.91 14.586-9.91 23.958 0 9.404 3.769 17.883 9.91 24.027zM88.814 138.24c-9.352 0-17.831 3.805-23.99 9.966-6.141 6.124-9.91 14.619-9.91 23.97 0 9.441 3.769 17.867 9.91 24.011 6.159 6.156 14.638 9.961 23.99 9.961 9.386 0 17.884-3.805 23.99-9.961 6.124-6.144 9.945-14.569 9.945-24.011 0-9.351-3.821-17.846-9.945-23.97-6.106-6.16-14.603-9.966-23.99-9.966zM303.939 37.847c-6.142-6.107-14.638-9.929-24.007-9.929-9.387 0-17.831 3.822-24.025 9.929-6.072 6.124-9.91 14.639-9.91 24.007 0 9.388 3.838 17.85 9.91 23.974 6.194 6.177 14.638 9.961 24.025 9.961 9.369 0 17.866-3.785 24.007-9.961 6.159-6.124 9.927-14.586 9.927-23.974 0-9.368-3.769-17.883-9.927-24.007zM471.065 138.24c-9.351 0-17.9 3.805-24.007 9.966-6.177 6.124-9.925 14.619-9.925 23.97 0 9.441 3.748 17.867 9.925 24.011 6.107 6.156 14.655 9.961 24.007 9.961 9.335 0 17.867-3.805 23.99-9.961 6.144-6.144 9.945-14.569 9.945-24.011 0-9.351-3.801-17.846-9.945-23.97-6.124-6.16-14.655-9.966-23.99-9.966zM686.121 37.847c-6.054-6.107-14.619-9.929-23.937-9.929-9.388 0-17.83 3.822-24.027 9.929-6.156 6.124-9.945 14.639-9.945 24.007 0 9.388 3.789 17.85 9.945 23.974 6.197 6.177 14.639 9.961 24.027 9.961 9.318 0 17.883-3.785 23.937-9.961 6.16-6.124 9.945-14.586 9.945-23.974 0-9.368-3.785-17.883-9.945-24.007zM877.273 148.206c-6.124-6.16-14.639-9.966-24.007-9.966-9.388 0-17.85 3.805-24.027 9.966-6.124 6.124-9.908 14.619-9.908 23.97 0 9.441 3.785 17.867 9.908 24.011 6.177 6.156 14.639 9.961 24.027 9.961 9.368 0 17.883-3.805 24.007-9.961 6.16-6.144 9.929-14.569 9.929-24.011 0-9.351-3.768-17.846-9.929-23.97z" />
<glyph unicode="&#xe904;" glyph-name="geography" horiz-adv-x="866" d="M596.299-31.594h-440.276c-14.876 0-26.894 11.985-26.894 26.896 0 14.876 12.018 26.825 26.894 26.825h193.297v45.497c-55.156 3.064-109.134 15.498-159.614 36.47-58.706 24.348-112.633 59.971-158.212 105.519-10.494 10.543-10.494 27.55 0 38.046 10.425 10.441 27.465 10.441 37.995 0 40.748-40.802 88.648-72.598 140.565-94.141 50.826-21.039 105.826-32.331 162.091-32.8 1.316 0.051 2.598 0.244 3.966 0.244 1.351 0 2.702-0.193 3.966-0.244 118.156 0.953 225.093 49.321 302.709 126.941 78.482 78.466 127.059 186.896 127.059 306.68 0 57.601-11.414 114.040-33.044 166.080-21.488 51.902-53.181 99.803-94.015 140.639-10.476 10.373-10.476 27.466 0 37.908 10.461 10.564 27.498 10.564 37.994 0 45.647-45.65 81.286-99.456 105.582-158.199 24.332-58.707 37.218-122.004 37.218-186.429 0-134.558-54.603-256.512-142.801-344.726-82.274-82.227-193.887-135.219-317.759-141.989v-45.497h193.28c14.757 0 26.845-11.949 26.845-26.825 0-14.911-12.087-26.896-26.845-26.896zM495.636 850.718c-38.239 15.395-78.832 23.136-119.526 23.136-21.577 0-43.224-2.165-64.403-6.494l63.087-63.124c27.048 15.119 53.648 27.137 79.244 35.623 14.131 4.728 28.125 8.313 41.598 10.858zM253.537 849.489c-29.734-12.313-57.944-29.336-83.556-51.070l83.608-83.593c24.244 22.652 49.354 42.689 74.517 60.041l-74.569 74.623zM131.969 760.475c-21.681-25.561-38.67-53.876-51-83.576l74.586-74.571c17.387 25.197 37.51 50.291 60.022 74.502l-83.608 83.645zM63.167 618.763c-4.382-21.283-6.546-42.775-6.546-64.424 0-40.574 7.672-81.254 23.136-119.509 2.511 13.473 6.2 27.329 10.841 41.598 8.537 25.596 20.486 52.161 35.639 79.23l-63.070 63.105zM256.654 257.824c38.167-15.293 78.846-23.032 119.455-23.032 21.628 0 43.223 2.217 64.419 6.581l-63.069 63.055c-27.015-15.12-53.719-27.104-79.262-35.623-14.131-4.73-28.089-8.294-41.544-10.98zM498.735 259.159c29.68 12.296 57.943 29.318 83.554 51.019l-83.554 83.625c-24.352-22.496-49.424-42.669-74.571-60.109l74.571-74.535zM620.32 348.172c21.646 25.612 38.688 53.858 50.983 83.594l-74.5 74.571c-17.542-25.234-37.648-50.208-60.144-74.571l83.661-83.594zM689.172 489.83c4.348 21.268 6.479 42.882 6.479 64.508 0 40.543-7.621 81.24-23.138 119.478-2.56-13.508-6.179-27.431-10.89-41.546-8.452-25.544-20.437-52.352-35.639-79.264l63.189-63.177zM376.109 927.575c-42.133 0-84.301-7.066-124.46-21.266-0.364-0.069-0.675-0.26-0.97-0.364-50.619-18.045-98.068-47.209-138.504-87.732-40.436-40.437-69.72-87.836-87.661-138.422-0.173-0.312-0.225-0.623-0.329-0.883-14.235-40.195-21.3-82.415-21.3-124.569 0-95.559 36.436-191.118 109.29-263.904 72.906-72.925 168.429-109.363 263.934-109.363 42.218 0 84.458 7.085 124.599 21.283 0.327 0.122 0.571 0.295 0.933 0.347 50.55 17.959 97.914 47.262 138.421 87.733 40.468 40.456 69.699 87.887 87.694 138.457 0.051 0.189 0.26 0.536 0.327 0.866 14.218 40.192 21.303 82.416 21.303 124.581 0 95.527-36.439 191.018-109.324 263.874-72.889 72.908-168.413 109.362-263.954 109.362zM578.966 795.162l-97.516-97.517-67.139 67.089c19.295 10.079 38.254 18.219 56.541 24.28 42.862 14.218 80.805 16.885 108.115 6.148zM366.654 736.386l76.75-76.735-67.295-67.315-84.474 84.494c24.539 22.704 49.839 42.637 75.019 59.556zM253.624 638.834l84.509-84.496-67.313-67.363-76.768 76.839c16.902 25.231 36.886 50.48 59.572 75.020zM165.703 516.242l67.122-67.178-97.514-97.568c-10.737 27.258-8.139 65.185 6.148 108.115 6.061 18.29 14.165 37.25 24.244 56.631zM173.305 313.482l97.514 97.571 67.122-67.123c-19.24-10.134-38.237-18.239-56.559-24.281-42.774-14.238-80.786-16.955-108.078-6.168zM385.651 372.311l-76.837 76.753 67.295 67.352 84.474-84.634c-24.537-22.65-49.857-42.602-74.932-59.471zM498.629 469.811l-84.523 84.527 67.344 67.317 76.702-76.804c-16.868-25.198-36.817-50.483-59.522-75.040zM586.531 592.509l-67.088 67.141 97.516 97.517c10.787-27.328 8.086-65.289-6.148-108.133-6.061-18.288-14.253-37.216-24.281-56.526z" />
<glyph unicode="&#xe905;" glyph-name="natural_science" d="M857.015 347.567l-158.396 60.928c10.773 50.944 0.623 106.142-32.196 151.336l165.53 165.528c83.627-50.881 192.047 9.471 192.047 108.146 0 69.748-56.747 126.494-126.494 126.494-98.756 0-158.976-108.506-108.147-192.048l-165.53-165.529c-71.066 51.608-168.495 48.076-235.761-9.549l-84.241 71.608c42.028 83.649-19.089 183.079-113.082 183.079-69.748 0-126.494-56.746-126.494-126.494 0-103.523 117.786-162.437 200.544-102.46l84.227-71.596c-39.842-65.338-36.689-148.538 8.557-210.84l-110.172-110.174c-104.203 70.647-247.407-3.831-247.407-131.379 0-87.462 71.156-158.618 158.62-158.618 127.438 0 202.099 143.095 131.377 247.403l110.172 110.174c46.171-33.532 103.818-44.023 157.493-30.784l68.476-161.856c-64.772-57.472-24.026-164.937 62.554-164.937 52.036 0 94.366 42.334 94.366 94.37 0 54.071-45.956 98.219-101.461 94.071l-68.489 161.886c26.244 16.474 48.218 39.151 63.838 65.967l158.421-60.941c-2.257-53.965 41.028-98.351 94.263-98.351 52.036 0 94.37 42.334 94.37 94.37 0 87.531-110.404 128.337-166.985 60.194zM897.506 899.765c36.535 0 66.257-29.724 66.257-66.259s-29.722-66.259-66.257-66.259c-36.535 0-66.257 29.724-66.257 66.259s29.722 66.259 66.257 66.259zM190.745 654.808c-36.535 0-66.259 29.724-66.259 66.259s29.724 66.259 66.259 66.259c36.535 0 66.259-29.724 66.259-66.259s-29.724-66.259-66.259-66.259zM158.62-3.763c-54.25 0-98.385 44.134-98.385 98.381 0 54.251 44.134 98.385 98.385 98.385s98.384-44.134 98.384-98.385c0-54.246-44.134-98.381-98.384-98.381zM688.691 64.503c18.82 0 34.133-15.313 34.133-34.133 0-18.825-15.313-34.133-34.133-34.133-18.825 0-34.133 15.309-34.133 34.133 0 18.82 15.309 34.133 34.133 34.133zM512 317.491c-71.962 0-130.51 58.547-130.51 130.509s58.548 130.51 130.51 130.51c71.962 0 130.509-58.548 130.509-130.51s-58.547-130.509-130.509-130.509zM929.63 253.239c-18.82 0-34.133 15.313-34.133 34.133s15.313 34.133 34.133 34.133c18.825 0 34.133-15.313 34.133-34.133s-15.309-34.133-34.133-34.133z" />
<glyph unicode="&#xe906;" glyph-name="ecology" d="M1000.849 4.382l-138.509 138.419c37.483 104.179 45.154 216.593 23.091 324.352-22.81 111.234-77.257 217.158-163.405 303.307-86.131 86.112-192.034 140.574-303.23 163.444-114.403 23.413-234.341 13.301-343.866-30.392-0.188-0.038-0.338-0.15-0.469-0.263v0.113l-0.169-0.113c-7.804-3.152-14.314-9.268-17.597-17.654h0.056c-43.881-109.732-54.050-229.819-30.543-344.372 22.832-111.27 77.257-217.118 163.369-303.232 86.112-86.148 192.073-140.535 303.325-163.405 107.631-22.118 220.177-14.332 324.412 23.002l138.47-138.359c12.403-12.535 32.589-12.535 45.065 0 12.403 12.437 12.403 32.606 0 45.154zM812.062 193.041l-72.286 72.341v384.033c41.293-59.978 69.338-126.241 83.465-194.943 17.711-86.391 13.961-176.444-11.179-261.431zM88.401 553.923c-1.726 8.611-3.077 17.391-4.465 26.077h251.075l116.112-116.129h-335.388c-11.725 29.342-21.031 59.435-27.334 90.051zM559.876 813.872c41.557-23.357 80.747-52.361 116.207-87.65 0-0.207-0.077-0.262-0.077-0.45v-396.714l-116.13 116.164v368.65zM496.128 844.246v-335.331l-116.11 116.13v251.094c8.687-1.388 17.448-2.796 26.040-4.484 30.674-6.322 60.728-15.703 90.070-27.409zM316.232 882.124v-193.292l-171.549 171.604c55.851 16.641 113.878 23.62 171.549 21.687zM99.601 815.411l171.623-171.642h-193.254c-2.026 57.652 5.103 115.754 21.631 171.642zM146.109 400.218h368.724l116.13-116.147h-397.167c-35.27 35.362-64.349 74.684-87.688 116.147zM505.621 136.926c-68.685 14.016-135.002 42.065-194.981 83.298h384.054l72.303-72.247c-85.026-25.212-174.946-28.928-261.376-11.051z" />
<glyph unicode="&#xe907;" glyph-name="obj" d="M511.637 921.175c260.693 0 472.768-212.076 472.768-472.77s-212.075-472.768-472.768-472.768c-260.694 0-472.771 212.075-472.771 472.768s212.076 472.77 472.771 472.77zM511.637 895.575c-246.556 0-447.171-200.615-447.171-447.17s200.615-447.168 447.171-447.168c246.554 0 447.168 200.614 447.168 447.168s-200.614 447.17-447.168 447.17zM261.217 437.359l1.054-11.647c10.549-116.598 101.257-210.352 216.444-225.538l10.226-1.135 11.65-1.051v-174.211l-13.537 0.781c-210.869 12.164-380.601 178.282-398.432 387.591l-0.834 11.672-0.781 13.537h174.211zM936.265 437.359l-0.781-13.537c-12.168-210.87-178.287-380.601-387.591-398.429l-11.672-0.833-13.537-0.781v174.207l11.646 1.054c116.585 10.551 210.351 101.278 225.535 216.446l1.134 10.224 1.051 11.65h174.215zM238.080 411.776h-123.733l0.952-9.148c21.093-183.628 166.935-329.468 350.561-350.559l9.105-0.912v123.733l-8.986 1.306c-115.713 19.335-207.183 110.819-226.545 226.545l-1.354 9.035zM908.885 411.776h-123.733l-1.309-9.025c-19.333-115.696-110.826-207.182-226.543-226.548l-9.033-1.312v-123.733l9.147 0.912c183.624 21.091 329.465 166.932 350.559 350.559l0.913 9.148zM511.637 676.835c125.948 0 228.429-102.481 228.429-228.43 0-125.947-102.482-228.429-228.429-228.429-125.97 0-228.431 102.47-228.431 228.429 0 125.96 102.46 228.43 228.431 228.43zM511.637 651.235c-111.832 0-202.831-91.008-202.831-202.83 0-111.82 91-202.829 202.831-202.829 111.809 0 202.829 91.020 202.829 202.829s-91.020 202.83-202.829 202.83zM522.684 873.035l13.537-0.781c210.866-12.167 380.597-178.286 398.429-387.593l0.834-11.672 0.781-13.537h-174.212l-1.054 11.647c-10.547 116.584-101.274 210.35-216.442 225.537l-10.224 1.135-11.65 1.051v174.214zM500.591 873.035v-174.214l-11.65-1.051c-116.59-10.516-210.347-101.25-225.535-216.443l-1.135-10.226-1.051-11.65h-174.214l0.781 13.537c12.167 210.869 178.286 380.6 387.594 398.431l11.672 0.834 13.537 0.781zM548.267 845.696v-123.733l9.026-1.349c115.696-19.336 207.182-110.83 226.544-226.546l1.315-8.99h123.733l-0.913 9.105c-21.094 183.626-166.935 329.467-350.559 350.561l-9.147 0.953zM474.965 845.696l-9.105-0.953c-183.627-21.093-329.468-166.934-350.562-350.561l-0.952-9.105h123.733l1.349 8.987c19.336 115.719 110.824 207.213 226.549 226.549l8.988 1.349v123.733zM903.67 187.543c-13.12-13.12-14.213-33.715-3.28-48.081l3.28-3.753c10.615-10.615 16.441-24.661 16.441-39.657 0-15.008-5.831-29.082-16.441-39.691-19.607-19.61-53.432-20.917-74.934-3.923l-4.409 3.922c-14.353 14.3-37.555 14.331-51.854-0.014-14.301-14.255-14.301-37.504 0.014-51.82 24.414-24.414 56.957-37.899 91.496-37.899 34.557 0 67.097 13.471 91.526 37.899 24.418 24.38 37.895 56.95 37.895 91.526 0 34.522-13.475 67.034-37.888 91.484-13.17 13.128-33.731 14.222-48.093 3.287l-3.753-3.28zM937.421 169.426c19.603-19.633 30.383-45.642 30.383-73.375 0-27.786-10.78-53.837-30.39-73.417-19.633-19.633-45.661-30.408-73.431-30.408-27.748 0-53.779 10.787-73.394 30.401-4.313 4.313-4.313 11.331-0.015 15.616 4.323 4.337 11.32 4.328 15.666-0.002 30.987-30.992 84.528-30.992 115.532 0.017 15.409 15.409 23.938 35.994 23.938 57.793 0 21.79-8.525 42.346-23.939 57.759-4.315 4.315-4.315 11.315 0 15.63 4.322 4.322 11.299 4.322 15.649-0.014zM67.795 892.273c-24.46-24.46-37.928-56.964-37.928-91.526 0-34.526 13.474-67.037 37.889-91.487 7.006-6.958 16.304-10.718 25.909-10.718 9.667 0 18.989 3.783 25.933 10.775 13.093 13.093 14.184 33.684 3.249 48.051l-3.28 3.753c-10.587 10.587-16.409 24.634-16.409 39.626 0 15.007 5.832 29.081 16.44 39.69 20.408 20.456 52.784 21.813 74.824 4.090l4.556-4.090c14.314-14.315 37.521-14.315 51.835 0s14.315 37.522 0 51.836c-48.544 48.545-126.311 50.402-177.065 5.597l-5.954-5.597zM232.712 874.171c4.317-4.317 4.317-11.315 0-15.632s-11.315-4.317-15.631 0c-31.909 31.909-83.739 31.92-115.595-0.010-15.398-15.398-23.928-35.984-23.928-57.781 0-21.784 8.52-42.342 23.907-57.728 4.317-4.317 4.317-11.315 0-15.632-2.11-2.125-4.873-3.246-7.8-3.246-2.906 0-5.703 1.131-7.831 3.245-19.588 19.617-30.367 45.623-30.367 73.361 0 27.771 10.77 53.764 30.433 73.427 40.447 40.475 106.325 40.484 146.812-0.003zM772.459 892.273c-14.321-14.317-14.321-37.57 0.015-51.854 13.15-13.103 33.732-14.195 48.097-3.264l3.753 3.279c21.008 21.010 58.339 21.010 79.345 0.002 10.61-10.609 16.441-24.683 16.441-39.69 0-12.855-4.28-25.011-12.187-34.905l-4.253-4.752c-14.313-14.316-14.313-37.521-0.001-51.836 6.951-6.951 16.269-10.745 25.905-10.745 9.644 0 18.992 3.789 25.931 10.775 24.383 24.381 37.869 56.925 37.869 91.463 0 34.559-13.47 67.096-37.899 91.526-47.044 47.115-127.221 48.979-176.963 5.652l-6.053-5.65zM937.366 874.176c19.634-19.634 30.408-45.659 30.408-73.431 0-27.747-10.787-53.779-30.401-73.391-2.102-2.116-4.89-3.246-7.798-3.246-2.902 0-5.693 1.136-7.802 3.246-4.316 4.316-4.316 11.316 0.001 15.633 15.413 15.411 23.938 35.967 23.938 57.759 0 21.798-8.53 42.384-23.939 57.792-31.003 31.006-84.544 31.006-115.548-0.001-4.321-4.319-11.329-4.319-15.68 0.016-4.301 4.285-4.301 11.301 0.016 15.616 39.059 39.058 107.796 39.076 146.806 0.007zM67.762 187.542c-24.412-24.414-37.896-56.956-37.896-91.491 0-34.55 13.459-67.056 37.89-91.52 24.557-24.556 57.389-37.841 91.5-37.841 34.118 0 66.979 13.29 91.526 37.835 14.315 14.312 14.315 37.522-0.001 51.835-13.122 13.119-33.688 14.212-48.050 3.28l-3.753-3.28c-21.899-21.898-57.508-21.898-79.375-0.006-10.614 10.615-16.446 24.689-16.446 39.697 0 12.853 4.28 25.009 12.188 34.905l4.253 4.752c14.315 14.312 14.315 37.522-0.001 51.835-13.12 13.124-33.715 14.217-48.083 3.279l-3.753-3.28zM101.495 169.442c4.318-4.317 4.318-11.316 0.002-15.631-15.414-15.415-23.939-35.971-23.939-57.76 0-21.798 8.529-42.383 23.938-57.793 31.86-31.897 83.686-31.897 115.584-0.001 4.316 4.316 11.284 4.316 15.601-0.001 4.316-4.315 4.316-11.313 0-15.629-19.69-19.69-46.021-30.338-73.425-30.338-27.395 0-53.697 10.643-73.392 30.337-19.633 19.659-30.398 45.659-30.398 73.424 0 27.745 10.786 53.776 30.399 73.391 4.317 4.318 11.313 4.318 15.63 0z" />
<glyph unicode="&#xe908;" glyph-name="world" d="M934.246 158.746c56.581 82.345 89.754 181.975 89.754 289.219 0 282.34-229.658 512.036-511.964 512.036-103.148 0-199.25-30.686-279.712-83.366-1.876-0.994-3.616-2.146-5.216-3.436-136.87-92.008-227.108-248.276-227.108-425.234 0-282.307 229.696-511.964 512.036-511.964 172.529 0 325.381 85.786 418.181 216.934 1.546 1.766 2.883 3.722 4.029 5.811zM512.036 1.531c-246.202 0-446.504 200.264-446.504 446.433 0 143.146 67.726 270.76 172.802 352.528 15.832-19.58 35.084-31.864 55.616-34.884 3.62-0.532 7.278-0.782 10.97-0.782 25.15 0 51.544 11.626 79.322 23.856 10.738 4.74 21.956 9.692 33.494 14.094 16.898 6.46 25.382 25.4 18.92 42.296-6.442 16.916-25.382 25.364-42.296 18.92-12.584-4.81-24.832-10.17-36.546-15.336-19.88-8.75-44.692-19.524-54.314-18.21-2.664 0.396-6.26 2.69-10.176 6.662 61.814 34.88 132.708 55.472 208.186 57.228-6.344-24.248-14.442-53.34-22.398-61.776-10.17-10.756-29.482-20.198-46.504-28.542-28.062-13.72-57.064-27.92-63.774-56.976-2.592-11.218-2.52-28.684 12.62-48.1 26.57-34.096 74.334-35.038 120.536-35.96 25.56-0.496 54.508-1.064 67.943-8.396 4.46-2.432 8.556-8.378 10.245-14.786 1.382-5.272 0.476-8.288 0.302-8.644-0.020-0.018-0.998-0.782-2.611-1.19-2.575 0.284-9.477 3.656-14.039 5.892-9.037 4.402-19.297 9.424-31.222 11.342-16.031 2.592-30.264 0.48-41.714-1.208-6.408-0.94-11.52-1.686-17.022-1.758-8.928 0.018-18.992 1.792-29.642 3.674-23.748 4.206-53.284 9.424-83.564-4.064-28.754-12.798-53.354-40.132-73.11-62.106-4.668-5.2-9.124-10.152-13.33-14.572l-3.87-4.046c-44.462-46.486-76.588-80.068-37.842-165.301 22.222-48.865 45.030-86.241 118.194-86.241 0.248 0 0.48 0 0.71 0 19.72 0.072 37.842 5.268 53.834 9.851 5.484 1.577 12.886 3.707 18.352 4.787 0.408-2.749 0.746-6.656 0.798-12.032 0.284-28.027 17.5-43.786 27.796-53.197 2.574-2.376 6.478-5.944 7.064-6.779 0 0 0.124-1.101-0.514-3.748-2.272-9.354-5.272-13.932-9.052-19.717-10.559-16.189-19.028-33.495-7.26-66.883l-0.036-0.036 0.888-2.36c0.106-0.282 0.212-0.568 0.32-0.87 0.072-0.159 0.124-0.338 0.196-0.492 2.52-6.958 4.952-17.254 7.544-28.155 9.088-38.282 27.122-114.391 93.113-114.376 6.216 0 12.872 0.655 20.024 2.058 57.062 11.607 83.476 76.375 100.941 119.204 1.347 3.323 2.929 7.153 4.419 10.721 21.96 3.021 38.072 11.059 49.024 24.3 19.599 23.782 14.080 53.601 10.045 75.397-1.239 6.692-3.226 17.311-2.924 22.472 34.022 14.182 103.67 43.54 93.128 105.293-4.649 27.402-28.733 51.717-59.208 82.498-23.68 23.926-67.732 68.442-58.931 84.842 8.576 15.938 2.591 35.8-13.348 44.374-15.903 8.556-35.799 2.592-44.375-13.348-31.754-59.088 24.709-116.116 70.077-161.962 15.35-15.498 38.569-38.927 41.175-47.391 0.425-2.504-2.232-12.339-54.364-34.043-49.398-20.608-40.151-70.61-35.697-94.643 1.172-6.354 3.021-16.312 2.913-21.53-2.611-0.835-8.079-2.007-18.161-2.094-8.909-0.087-17.393-3.763-23.537-10.24-8.197-8.643-13.276-21.069-20.941-39.9-10.721-26.235-30.638-75.080-53.34-79.713-14.305-3-22.508 5.217-36.244 63.171-2.836 12.032-5.555 23.465-9.069 33.597l0.036 0.020-0.852 2.253c-0.106 0.287-0.196 0.517-0.302 0.783-0.018 0.072-0.054 0.159-0.072 0.23-1.508 3.994-2.148 6.441-2.414 7.772 0.622 1.050 1.348 2.043 2.094 3.159 5.148 7.921 12.959 19.83 17.874 40.151 10.025 41.375-14.306 63.631-26.002 74.337-2.45 2.253-6.408 5.519-6.496 5.519-0.214 20.552-3.106 49.823-25.79 66.734-24.104 18.002-53.426 9.605-76.962 2.842-12.46-3.569-25.364-7.26-35.978-7.296-34.948 0.302-40.504 7.117-59.016 47.836-20.412 44.851-16.932 48.49 25.524 92.862l3.904 4.082c4.632 4.846 9.532 10.294 14.662 15.992 15.602 17.342 35.002 38.942 51.012 46.060 11.412 5.076 24.724 3.088 45.528-0.586 12.354-2.166 26.322-4.65 40.93-4.668 9.566 0 18.814 1.296 26.678 2.45 8.43 1.26 15.709 2.36 21.725 1.348 2.345-0.372 8.684-3.478 12.867-5.538 13.153-6.426 31.099-15.176 52.081-11.768 31.396 5.166 53.176 26.198 58.271 56.248 5.893 34.788-13.046 73.766-44.073 90.664-27.494 14.962-63.329 15.672-97.994 16.364-18.442 0.372-46.664 0.922-61.946 6.426 6.302 3.514 14.040 7.296 20.056 10.242 22.044 10.792 47.036 23.020 65.337 42.422 20.413 21.584 30.013 58.716 40.202 98.030 0.461 1.772 0.922 3.544 1.382 5.318 191.795-24.244 346.020-170.67 382.106-358.596-2.775 1.308-6.103 3-10.163 5.158-16.492 8.786-39.050 20.784-65.055 12.14-24.919-8.306-34.289-31.222-39.864-44.942-13.88 9.726-41.411 37.026-61.588 59.584-12.073 13.49-32.788 14.662-46.259 2.592-13.471-12.052-14.659-32.766-2.591-46.256 9.088-10.17 55.839-61.626 83.937-76.444 11.909-6.287 23.199-9.426 33.792-9.426 5.929 0 11.648 0.993 17.111 2.964 22.385 8.146 30.71 28.63 36.265 42.189 0.635 1.598 1.454 3.568 2.253 5.414 3.497-1.58 7.864-3.888 11.162-5.662 11.551-6.166 28.754-15.32 48.742-16.516 0.169-5.038 0.282-10.090 0.282-15.17 0-72.146-17.219-140.334-47.739-200.709-12.14 9.708-30.761 18.611-58.88 20.076-29.112 1.705-82.217-10.865-111.007-111.59-4.966-17.377 5.115-35.533 22.508-40.504 3-0.87 6.052-1.28 9.032-1.28 14.239 0 27.356 9.39 31.473 23.767 11.571 40.402 28.257 65.249 44.554 64.164 16.328-0.87 21.458-5.571 22.646-6.994 1.684-2.022 2.273-5.361 2.381-8.699-81.208-111.8-212.941-184.653-361.395-184.653z" />
<glyph unicode="&#xe909;" glyph-name="nanotechnology" d="M512 960c-282.969 0-512-228.995-512-512 0-282.965 228.992-512 512-512 282.965 0 512 228.992 512 512 0 282.969-228.996 512-512 512zM512-3.763c-249.103 0-451.765 202.658-451.765 451.763 0 249.103 202.662 451.765 451.765 451.765 249.105 0 451.763-202.662 451.763-451.765 0-249.105-202.658-451.763-451.763-451.763zM481.886 478.127h60.237v-60.237h-60.237v60.237zM512 839.542c-215.891 0-391.531-175.64-391.531-391.529s175.64-391.531 391.531-391.531c215.889 0 391.526 175.642 391.526 391.531s-175.637 391.529-391.526 391.529zM841.907 478.131h-64.030c-11.358 32.021-40.277 55.789-75.127 59.662-20.855 44.082-56.887 80.117-100.971 100.971-3.874 34.85-27.644 63.771-59.665 75.127v64.032c158.69-14.37 285.423-141.103 299.793-299.792zM587.085 317.5c-35.849 53.453-114.231 53.594-150.174 0-22.928 13.269-42.155 32.499-55.424 55.424 53.453 35.853 53.594 114.231 0 150.174 13.27 22.929 32.499 42.157 55.424 55.427 35.849-53.455 114.236-53.592 150.174 0 22.929-13.27 42.159-32.499 55.428-55.427-53.457-35.849-53.594-114.231 0-150.174-13.269-22.925-32.499-42.155-55.428-55.424zM512 237.188c-16.61 0-30.118 13.508-30.118 30.118s13.508 30.118 30.118 30.118c16.606 0 30.114-13.508 30.114-30.118s-13.508-30.118-30.114-30.118zM331.292 478.131c16.607 0 30.118-13.513 30.118-30.118 0-16.61-13.511-30.118-30.118-30.118s-30.118 13.508-30.118 30.118c0 16.606 13.511 30.118 30.118 30.118zM512 658.836c16.606 0 30.114-13.511 30.114-30.118s-13.508-30.118-30.114-30.118c-16.61 0-30.118 13.511-30.118 30.118s13.508 30.118 30.118 30.118zM692.706 417.894c-16.61 0-30.118 13.508-30.118 30.118 0 16.606 13.508 30.118 30.118 30.118 16.606 0 30.114-13.513 30.114-30.118 0-16.61-13.508-30.118-30.114-30.118zM481.882 777.923v-64.032c-32.021-11.357-55.791-40.277-59.664-75.127-44.082-20.854-80.117-56.888-100.97-100.971-34.85-3.873-63.771-27.64-75.127-59.662h-64.032c14.37 158.688 141.103 285.422 299.794 299.792zM182.087 417.894h64.032c11.356-32.021 40.277-55.791 75.127-59.661 20.853-44.083 56.888-80.119 100.97-100.971 3.873-34.854 27.643-63.774 59.664-75.127v-64.034c-158.691 14.37-285.424 141.103-299.794 299.793zM542.114 118.101v64.034c32.021 11.354 55.791 40.273 59.665 75.127 44.083 20.851 80.115 56.887 100.971 100.971 34.85 3.87 63.77 27.639 75.127 59.661h64.034c-14.374-158.69-141.107-285.423-299.797-299.793z" />
<glyph unicode="&#xe90a;" glyph-name="baby" horiz-adv-x="1113" d="M463.075 406.893c0 57.535-46.809 104.346-104.346 104.346s-104.349-46.81-104.349-104.346h63.333c0 22.617 18.401 41.013 41.016 41.013s41.014-18.396 41.014-41.013h63.332zM722.138 511.239c-57.535 0-104.346-46.81-104.346-104.346h63.332c0 22.617 18.401 41.013 41.013 41.013 22.617 0 41.018-18.396 41.018-41.013h63.332c0 57.535-46.81 104.346-104.35 104.346zM540.44 221.589c-40.038 0-77.584 21.473-97.983 56.040l-54.544-32.185c31.735-53.778 90.179-87.187 152.523-87.187 62.348 0 120.792 33.409 152.527 87.187l-54.544 32.185c-20.395-34.567-57.941-56.040-97.979-56.040zM1039.672 519.062c-20.173 20.146-45.501 33.467-72.993 38.683-59.37 183.469-231.598 309.79-426.242 309.79h-21.228c-50.986 0-92.466 41.482-92.466 92.465h-63.333c0-34.597 11.349-66.584 30.5-92.465h-20.065c-50.986 0-92.465 41.482-92.465 92.465h-63.332c0-68.811 44.857-127.305 106.85-147.877-98.047-53.903-174.897-143.741-210.699-254.379-27.492-5.216-52.827-18.542-73.013-38.707-26.559-26.587-41.185-61.915-41.185-99.474 0-37.104 14.312-72.107 40.303-98.567 20.312-20.68 45.965-34.326 73.896-39.62 59.368-183.47 231.596-309.787 426.238-309.787 194.645 0 366.872 126.317 426.242 309.787 27.928 5.294 53.582 18.94 73.897 39.62 25.987 26.459 40.301 61.462 40.301 98.567 0 37.559-14.625 72.887-41.205 99.498zM941.728 342.252l-23.766-0.454-6.206-22.942c-45.207-167.175-197.899-283.933-371.32-283.933s-326.11 116.758-371.318 283.933l-6.205 22.942-23.765 0.454c-41.806 0.788-75.818 35.47-75.818 77.312 0 20.658 8.047 40.087 22.632 54.691 14.225 14.211 33.113 22.243 53.179 22.621l23.769 0.445 6.205 22.949c45.21 167.173 197.901 283.93 371.32 283.93 57.242 0 103.807-46.566 103.807-103.804s-46.565-103.806-103.807-103.806c-57.237 0-103.802 46.566-103.802 103.804h-63.332c0-92.16 74.979-167.136 167.134-167.136 92.16 0 167.139 74.976 167.139 167.136 0 26.227-6.091 51.052-16.9 73.165 106.22-45.182 189.645-137.038 221.082-253.291l6.206-22.947 23.77-0.45c20.066-0.374 38.952-8.41 53.155-22.59 14.612-14.63 22.657-34.064 22.657-54.722 0-41.842-34.015-76.52-75.816-77.308z" />
<glyph unicode="&#xe90b;" glyph-name="engineering" d="M908.717 259.984c-1.521 3.823-3.818 7.188-6.641 10.006v0.063l-163.806 163.806 276.948 276.938c11.708 11.711 11.708 30.711 0 42.43l-197.993 197.984c-11.717 11.719-30.71 11.719-42.428 0l-276.938-276.938-241.797 241.797c-58.484 58.484-153.64 58.484-212.125 0-58.492-58.484-58.492-153.649 0-212.133l241.789-241.787-276.937-276.948c-11.719-11.713-11.719-30.71 0-42.423l197.984-197.993c5.86-5.856 13.539-8.787 21.219-8.787 7.672 0 15.352 2.931 21.211 8.787l276.938 276.938 163.86-163.796c2.828-2.818 6.193-5.115 10.016-6.641l282.834-113.137c3.618-1.448 7.392-2.141 11.142-2.141 7.812 0 15.482 3.043 21.216 8.787 8.485 8.485 11.093 21.211 6.641 32.354l-113.132 282.834zM838.437 248.842l-42.433-42.428-142.585 142.594 42.433 42.423 142.585-142.59zM291.421 795.859l164.008-164.008-42.422-42.43-164.007 164.008 42.421 42.43zM86.359 746.359c-35.086 35.093-35.086 92.195 0 127.281 17.547 17.547 40.594 26.32 63.641 26.32s46.094-8.773 63.64-26.32l35.36-35.352-127.281-127.281-35.359 35.352zM164.14 668.578l42.43 42.43 164.007-164.008-42.43-42.43-164.007 164.008zM492.642 400.36c-11.713 11.713-30.713 11.713-42.424 0-11.718-11.717-11.718-30.71 0-42.428l63.635-63.644-67.002-66.999-63.641 63.639c-11.711 11.713-30.711 11.713-42.43 0-11.711-11.717-11.711-30.71 0-42.428l63.641-63.639-67-67.004-35.359 35.352c-11.711 11.717-30.711 11.717-42.422 0-11.718-11.708-11.718-30.71 0-42.423l35.351-35.357-67-66.999-155.562 155.56 446.641 446.641c0.005 0.008 0.005 0.008 0.005 0.008l276.929 276.938 155.57-155.57-67.004-67-35.352 35.351c-11.717 11.718-30.71 11.718-42.433 0-11.708-11.711-11.708-30.711 0-42.422l35.362-35.359-67.009-67-63.639 63.641c-11.713 11.711-30.705 11.711-42.423 0-11.717-11.718-11.717-30.711 0-42.43l63.639-63.641-67.009-67.001-35.348 35.353c-11.722 11.719-30.71 11.719-42.433 0-11.708-11.713-11.708-30.701 0-42.423l35.362-35.357-67.009-66.999-63.639 63.639zM711.153 121.563l-142.585 142.594 42.423 42.418 142.594-142.585-42.433-42.428zM764.538 90.092l105.365 105.37 70.246-175.611-175.611 70.242z" />
<glyph unicode="&#xe90c;" glyph-name="astronomy" d="M1022.972 627.389l-83.23 310.375c-4.288 16.004-20.749 25.492-36.745 21.208l-124.032-33.258c-16-4.29-25.493-20.732-21.21-36.732l0.542-2.040-281.378-75.424c-16-4.29-25.498-20.738-21.21-36.74l0.542-2.034-281.544-75.444c-15.992-4.286-25.504-20.746-21.208-36.752l0.55-2.050-131.81-35.33c-16.002-4.29-25.498-20.738-21.21-36.74l33.258-124.162c6.090-22.741 28.902-23.322 36.746-21.218l131.874 35.349 0.558-2.078c4.056-15.121 19.878-25.724 36.74-21.205l245.785 65.86c-7.936-13.807-12.506-29.79-12.506-46.827 0-36.732 21.133-68.604 51.861-84.151l-191.087-409.301c-7.010-15.010-0.52-32.866 14.492-39.872 15.014-7.006 32.864-0.525 39.876 14.49l179.121 383.663 179.119-383.663c7.014-15.014 24.862-21.495 39.876-14.49s21.504 24.862 14.494 39.872l-191.087 409.297c30.737 15.548 51.87 47.42 51.87 84.151 0 20.873-6.827 40.171-18.351 55.808l196.599 52.696 0.555-2.066c6.084-22.746 28.919-23.32 36.74-21.222l124.198 33.274c15.987 4.29 25.498 20.746 21.21 36.754zM84.48 506.773l-17.734 66.208 102.876 27.574 17.732-66.208-102.874-27.574zM253.642 518.835l-34.418 128.278 252.452 67.646 34.423-128.277-252.457-67.646zM567.748 437.884c-18.893 0-34.266 15.373-34.266 34.266s15.373 34.266 34.266 34.266c18.897 0 34.27-15.373 34.27-34.266s-15.373-34.266-34.27-34.266zM572.416 570.977l-50.991 190.353 252.292 67.626 50.991-190.351-252.292-67.628zM891.021 623.089l-67.554 252.437 66.095 17.722 67.682-252.416-66.223-17.742z" />
<glyph unicode="&#xe90d;" glyph-name="history" d="M823.185 555.39l200.815 276.68-25.435 17.211c-107.026 72.438-232.889 110.719-363.996 110.719-169.499 0-328.853-63.68-448.711-179.305-119.851-115.633-185.857-269.368-185.857-432.892 0-35.586 3.215-71.342 9.556-106.282l5.369-29.585 333.354 56.703v-76.804l-117.891-255.835h690.46v411.804c0 82.65-37.835 156.93-97.663 207.587zM843.91 688.547c-28.561 16.414-58.867 29.297-90.344 38.508l35.092 152.711c52.059-14 101.91-35.125 148.28-63.047l-93.028-128.172zM727.922 892.688l-35.083-152.672c-19.176 2.633-38.632 3.985-58.27 3.985-13.664 0-27.172-0.664-40.493-1.93l-28.147 154c22.608 2.594 45.519 3.929 68.639 3.929 31.535 0 62.727-2.476 93.353-7.312zM440.815 697.047l-87.24 132.109c47.268 25.773 98.067 44.797 151.093 56.609l28.156-154.078c-32.376-7.992-63.212-19.711-92.008-34.641zM229.837 738.266c22.334 21.555 46.215 41.070 71.368 58.523l87.199-132.047c-26.407-19.14-50.345-41.273-71.286-65.867l-132.937 89.797c14.090 17.258 29.306 33.82 45.656 49.594zM241.49 462.608l-158.413 33.877c14.527 50.469 36.498 98.578 65.334 143.11l132.978-89.828c-16.739-27.14-30.214-56.358-39.899-87.158zM62.192 347.804c0 30.484 2.584 60.572 7.572 90.072l158.284-33.854c-2.721-18.365-4.154-37.131-4.154-56.218 0-13.014 0.696-26.067 2.016-39.054l-159.628-27.149c-2.721 21.945-4.090 44.112-4.090 66.204zM287.35 319.203c-0.834 9.514-1.264 19.069-1.264 28.601 0 185.384 156.324 336.196 348.482 336.196 61.462 0 120.868-15.406 173.546-44.766l-35.822-49.359c-40.889 21.734-87.832 34.125-137.724 34.125-157.865 0-286.289-123.9-286.289-276.196v-18.232l-60.929-10.369zM858.655 126.094l-86.924 215.904h-137.163v-59.997h94.6l115.147-285.999h-518.225l84.381 183.1v168.702c0 119.211 100.527 216.196 224.097 216.196 123.557 0 224.087-96.985 224.087-216.196v-221.709z" />
<glyph unicode="&#xe90e;" glyph-name="physical" d="M512 960c-283.15 0-512-228.776-512-512 0-283.153 228.776-512 512-512 283.149 0 512 228.774 512 512 0 283.154-228.774 512-512 512zM842.927 216.934l71.104 195.354 49.353 12.019c-4.817-92.834-37.786-178.334-90.496-248.141l-29.961 40.768zM890.906 694.162l-48.593-14.218-159.253 133.628 5.581 50.47c83.076-35.406 153.451-95.002 202.266-169.88zM335.358 864.042l5.582-50.47-159.252-133.628-48.592 14.218c48.814 74.878 119.186 134.474 202.262 169.88zM151.114 176.166c-52.71 69.807-85.678 155.311-90.494 248.141l49.35-12.019 71.104-195.354-29.96-40.768zM379.868 15.718l28.186 42.283h207.89l28.186-42.283c-41.813-12.804-86.178-19.721-132.13-19.721s-90.318 6.916-132.132 19.721zM701.568 37.73l-53.513 80.269h-272.11l-53.512-80.269c-49.050 22.754-93.366 54.042-131.018 91.959l57.022 77.594-93.068 255.701-93.77 22.839c4.57 54.886 18.986 107.008 41.474 154.608l92.586-27.090 208.448 174.91-10.61 95.956c37.781 10.274 77.508 15.792 118.502 15.792s80.721-5.518 118.507-15.794l-10.611-95.956 208.448-174.91 92.587 27.090c22.49-47.6 36.907-99.722 41.472-154.606l-93.769-22.844-93.069-255.697 57.024-77.598c-37.653-37.918-81.971-69.201-131.021-91.955zM326.917 518.357l73.452-220.361h223.247l73.451 220.361-185.075 148.059-185.075-148.059zM580.369 357.999h-136.755l-46.545 139.644 114.923 91.938 114.927-91.938-46.549-139.644z" />
<glyph unicode="&#xe90f;" glyph-name="clock" d="M338.336 832.913c-207.182-93.354-304.025-335.113-216.491-546.512 89.273-215.485 336.286-317.823 551.733-228.565 215.485 89.273 317.823 336.286 228.565 551.732-87.589 211.419-327.021 313.921-539.506 233.414l-12.228-4.848-12.075-5.22zM334.452 914.429c251.388 95.865 534.99-25.268 638.645-275.466 105.494-254.636-15.457-546.573-270.123-652.079-254.637-105.494-546.575 15.456-652.083 270.129-103.596 250.186 11.308 536.344 256.847 646.349l13.278 5.723 13.435 5.344zM535.963 653.55l-0.001-216.558 168.777-102.913-39.979-65.574-205.597 125.349v259.696z" />
<glyph unicode="&#xe910;" glyph-name="certification" horiz-adv-x="926" d="M496.006 947.81c32.312 0 63.45-11.688 87.735-32.704l7.074-6.582 137.899-137.899c22.858-22.858 36.624-53.136 38.938-85.156l0.348-9.653v-251.27h-73.143v251.27c0 13.834-4.726 27.212-13.274 37.95l-4.589 5.139-137.899 137.899c-9.798 9.798-22.6 15.923-36.221 17.473l-6.869 0.39h-349.72c-31.579 0-57.519-23.966-60.638-54.717l-0.314-6.235v-682.667c0-31.579 23.966-57.519 54.717-60.638l6.235-0.314h383.659v-73.143h-383.659c-71.336 0-129.63 55.652-133.851 125.924l-0.245 8.171v682.667c0 71.336 55.652 129.63 125.924 133.851l8.171 0.245h349.72zM524.19 911.238v-195.048c0-5.759 4.020-10.602 9.4-11.868l2.791-0.323h195.048v-73.143h-195.048c-44.759 0-81.489 34.493-85.050 78.337l-0.283 6.997v195.048h73.143zM683.923 292.314l51.72-51.72-120.702-120.702-82.765 82.765 51.72 51.72 31.040-31.024zM537.405 461.556l-43.103-5.791-7.947-1.379c-41.802-8.956-73.927-43.231-79.652-86.165l-5.783-43.151-26.468-34.653-4.907-7.005c-22.901-35.785-21.266-82.453 4.885-116.727l26.441-34.614 5.782-43.117 1.378-7.947c8.956-41.799 43.23-73.924 86.164-79.649l43.209-5.772 34.587-26.472 7.008-4.909c35.802-22.908 82.526-21.272 116.761 4.903l34.692 26.527 43.005 5.674 7.947 1.379c41.803 8.956 73.928 43.231 79.652 86.165l5.733 43.17 26.517 34.634 4.908 7.007c22.904 35.796 21.268 82.52-4.908 116.755l-26.468 34.653-5.733 43.049-1.378 7.947c-8.956 41.799-43.23 73.924-86.164 79.649l-43.258 5.841-34.539 26.404c-36.526 27.925-87.251 27.925-123.768 0.006l-34.596-26.41zM835.203 211.083l-30.977-40.605 2.876 2.966-11.473-22.052-7.070-52.858c-1.719-12.889-11.843-23.001-24.759-24.723l-52.752-7.021 2.143-32.731-19.473 25.539-42.374-32.378c-10.303-7.877-24.625-7.877-34.918-0.007l-50.046 38.284-62.502 8.36c-12.888 1.718-23.001 11.843-24.723 24.759l-8.306 62.351-38.285 50.105c-7.881 10.329-7.881 24.62-0.007 34.918l30.977 40.605-2.876-2.966 11.473 22.052 7.070 52.858c1.719 12.889 11.843 23.001 24.758 24.723l62.409 8.306 50.063 38.297c10.286 7.864 24.609 7.864 34.903-0.006l50.045-38.283 62.502-8.36c12.889-1.719 23.001-11.843 24.723-24.759l8.306-62.351 38.285-50.105c7.877-10.303 7.877-24.625 0.007-34.918z" />
<glyph unicode="&#xe911;" glyph-name="location" horiz-adv-x="819" d="M409.6 742.4l-10.135-0.277c-102.363-5.914-181.865-89.872-181.865-191.723l0.277-10.135c5.914-102.363 89.872-181.865 191.723-181.865l10.135 0.277c102.363 5.914 181.865 89.872 181.865 191.723l-0.277 10.135c-5.914 102.363-89.872 181.865-191.723 181.865zM402.795 665.404l6.805 0.196c61.104 0 111.488-47.71 115.004-108.395l0.212-7.914c-0.016-59.995-47.726-110.379-108.411-113.895l-7.914-0.212c-59.995 0.016-110.379 47.726-113.895 108.411l-0.212 7.914c0.016 59.995 47.726 110.379 108.411 113.895zM409.6 947.2c-219.147 0-396.8-177.653-396.8-396.8 0-23.61 2.451-47.686 7.223-72.181 21.11-108.376 86.061-221.36 180.914-334.845 40.234-48.137 83.246-93.146 126.268-133.863l21.776-20.228c3.483-3.173 6.889-6.244 10.213-9.213l26.032-22.542 24.374-20.021 32.529 26.899 17.877 15.665 20.887 19.031c3.631 3.372 7.334 6.843 11.102 10.409 43.022 40.717 86.034 85.727 126.268 133.863 94.853 113.485 159.804 226.469 180.914 334.845 4.771 24.495 7.223 48.572 7.223 72.181 0 219.147-177.653 396.8-396.8 396.8zM409.6 870.4c176.731 0 320-143.269 320-320 0-18.538-1.953-37.715-5.806-57.498-18.148-93.17-77.172-195.844-164.458-300.276-38.166-45.663-79.154-88.554-120.132-127.337l-15.657-14.612-13.947-12.585-8.943 8.004-20.661 19.193c-40.978 38.783-81.966 81.673-120.132 127.337-87.286 104.431-146.31 207.105-164.458 300.276-3.853 19.783-5.806 38.96-5.806 57.498 0 176.731 143.269 320 320 320z" />
<glyph unicode="&#xe912;" glyph-name="mouse" horiz-adv-x="572" d="M285.573 952.471l-7.973-0.116c-149.82-4.455-270.071-128.070-270.071-277.929v-204.381c0-152.959 125.084-278.043 278.043-278.043l7.973 0.116c149.82 4.455 270.071 128.069 270.071 277.927v204.381c0 152.96-125.084 278.045-278.043 278.045zM278.607 907.191l6.965 0.103c128.009 0 232.867-104.858 232.867-232.868v-204.381c0-125.409-100.813-229.041-225.901-232.763l-7.301-0.106c-127.673 0-232.531 104.861-232.531 232.869v204.381c0 125.41 100.813 229.043 225.901 232.765zM416.102 90.325l25.060-37.589-155.589-103.727-155.589 103.727 25.060 37.589 130.502-87.012zM308.167 725.5v-102.193h-45.176v102.193z" />
<glyph unicode="&#xe913;" glyph-name="phone" d="M106.657 906.331l-35.406-35.406c-48.309-48.309-68.804-117.963-55.777-187.006 29.139-154.126 118.233-314.821 251.865-448.455s294.329-222.729 448.444-251.863c69.054-13.028 138.709 7.468 187.017 55.776l35.351 35.351c56.045 56.039 56.045 146.891 0 202.936l-63.697 63.697c-45.46 45.46-119.166 45.46-164.567-0.022l-49.028-49.084c-1.929-1.928-4.496-2.459-6.111-1.746-70.24 31.023-137.37 77.222-196.254 136.108-58.864 58.864-105.013 125.976-135.995 196.239-0.718 1.628-0.188 4.195 1.757 6.139l44.46 44.406c49.083 49.083 51.067 122.74 4.631 169.176l-63.752 63.752c-56.044 56.044-146.895 56.044-202.938 0zM260.226 856.962l63.752-63.752c18.558-18.558 17.764-48.044-4.616-70.423l-44.459-44.405c-21.978-21.978-28.851-55.219-16.283-83.701 34.482-78.202 85.567-152.492 150.505-217.43 64.947-64.949 139.241-116.079 217.422-150.609 28.485-12.574 61.724-5.703 83.69 16.255l49.055 49.11c18.141 18.173 47.607 18.173 65.794-0.014l63.697-63.697c28.779-28.779 28.779-75.423 0.001-104.197l-35.353-35.353c-31.741-31.741-77.992-45.35-124.692-36.54-139.801 26.429-288.003 108.596-412.032 232.626-124.030 124.031-206.196 272.231-232.629 412.044-8.809 46.689 4.799 92.939 36.541 124.68l35.406 35.406c28.778 28.778 75.422 28.778 104.2 0z" />
<glyph unicode="&#xe914;" glyph-name="loop" d="M139.78 820.221c177.062 177.063 464.141 177.063 641.202 0 177.066-177.063 177.066-464.141 0-641.201-177.061-177.066-464.14-177.066-641.202-0.001-177.064 177.061-177.064 464.139 0 641.202zM715.579 773.4c-146.752 136.965-376.796 133.921-519.847-9.131-146.163-146.162-146.163-383.139 0-529.299 146.161-146.164 383.138-146.164 529.299 0.001 143.054 143.050 146.098 373.094 9.131 519.847l-9.131 9.451-9.451 9.131zM724.797 235.222c14.163 14.163 36.393 15.343 51.9 3.54l4.051-3.541 216.939-216.944c15.45-15.451 15.45-40.501-0.001-55.951-14.163-14.163-36.393-15.343-51.9-3.54l-4.051 3.541-216.939 216.944c-15.45 15.451-15.45 40.501 0.001 55.951z" />
<glyph unicode="&#xe915;" glyph-name="mail" horiz-adv-x="1205" d="M990.804 944.941h-776.012c-104.961 0-191.649-81.551-198.415-185.807l-0.398-11.569c-0.024-67.421 32.659-129.069 87.275-166.077l271.41-184.012c137.769-93.382 318.5-93.382 456.264-0.003l271.425 184.022c50.539 34.174 82.495 89.711 86.793 150.5l0.468 12.456c0.028 111.463-88.975 200.49-198.809 200.49zM214.792 854.588h776.012c59.928 0 108.484-48.569 108.484-108.544l-0.355-9.27c-2.259-31.556-19.677-61.827-47.237-80.462l-271.467-184.050c-107.148-72.627-247.713-72.627-354.866 0.003l-271.416 184.016c-29.812 20.2-47.639 53.827-47.639 89.824l0.303 8.644c3.615 55.336 50.923 99.84 108.181 99.84zM60.235 791.294c22.871 0 41.773-16.996 44.764-39.046l0.412-6.13v-569.164c0-71.74 55.719-130.449 126.249-135.217l9.28-0.313h722.824c71.74 0 130.449 55.719 135.217 126.249l0.313 9.28v569.104c0 24.95 20.226 45.176 45.176 45.176 22.871 0 41.773-16.996 44.764-39.046l0.412-6.13v-569.104c0-120.736-94.703-219.334-213.885-225.569l-11.997-0.313h-722.824c-120.736 0-219.334 94.703-225.569 213.885l-0.313 11.997v569.164c0 24.95 20.226 45.176 45.176 45.176z" />
<glyph unicode="&#xe916;" glyph-name="moon" d="M972.99 311.155c-6.11 14.91-20.498 23.922-35.717 23.941-0.078 0-0.156 0.019-0.232 0.019-0.252 0-0.464-0.096-0.716-0.116-2.978-0.078-5.956-0.561-8.915-1.354-1.102-0.291-2.146-0.581-3.21-0.948-0.542-0.194-1.102-0.27-1.663-0.483-48.52-19.937-100.057-30.051-153.218-30.051-222.334 0-403.225 180.891-403.225 403.225 0 53.161 10.095 104.698 30.051 153.218 0.291 0.677 0.387 1.392 0.62 2.089 0.29 0.851 0.541 1.702 0.773 2.591 0.87 3.191 1.412 6.401 1.45 9.611 0 0.135 0.058 0.271 0.058 0.425 0 0.039-0.019 0.097-0.019 0.135 0 2.321-0.27 4.602-0.696 6.846-0.096 0.483-0.174 0.967-0.27 1.45-0.503 2.224-1.141 4.428-2.031 6.517-0.348 0.812-0.831 1.508-1.219 2.282-4.042 8.064-10.733 14.852-19.745 18.546-10.539 4.312-21.813 3.539-31.328-1.006-0.096-0.039-0.212-0.058-0.309-0.116-57.802-23.767-109.978-58.653-155.075-103.75-187.176-187.408-187.176-492.336 0.019-679.783 93.714-93.598 216.784-140.377 339.873-140.377s246.178 46.799 339.911 140.397c44.942 44.962 79.771 96.963 103.538 154.572 0.116 0.213 0.155 0.464 0.252 0.696 1.102 2.301 1.992 4.699 2.63 7.194 0.039 0.194 0.116 0.368 0.174 0.561 1.837 7.62 1.45 15.858-1.76 23.67zM813.508 179.151c-157.279-157.047-413.166-157.047-570.406 0-157.066 157.26-157.066 413.146-0.019 570.386 16.786 16.785 34.926 31.579 53.935 44.903-5.454-29.162-8.277-58.885-8.277-89.073 0-264.994 215.585-480.579 480.579-480.579 30.168 0 59.91 2.823 89.073 8.277-13.344-18.99-28.099-37.13-44.884-53.916z" />
<glyph unicode="&#xe917;" glyph-name="arrow_right" horiz-adv-x="1396" d="M131 505.313c-33.561 0-60.768-27.207-60.768-60.768s27.207-60.768 60.768-60.768v121.536zM1308.3 401.576c23.729 23.731 23.729 62.207 0 85.938l-386.724 386.724c-23.731 23.731-62.207 23.731-85.938 0s-23.732-62.207 0-85.938l343.749-343.754-343.749-343.754c-23.732-23.731-23.732-62.207 0-85.934 23.731-23.738 62.207-23.738 85.938 0l386.724 386.719zM131 383.778h1134.329v121.536h-1134.329v-121.536z" />
<glyph unicode="&#xe918;" glyph-name="sun" d="M270.49 749.673l-60.331 60.331c-16.64 16.661-43.691 16.661-60.331 0-16.661-16.661-16.661-43.669 0-60.331l60.331-60.331c8.32-8.341 19.243-12.501 30.165-12.501s21.845 4.16 30.165 12.501c16.661 16.661 16.661 43.669 0 60.331zM128 490.667h-85.333c-23.552 0-42.667-19.115-42.667-42.667s19.115-42.667 42.667-42.667h85.333c23.552 0 42.667 19.115 42.667 42.667s-19.115 42.667-42.667 42.667zM270.49 206.629c-16.64 16.661-43.691 16.661-60.331 0l-60.331-60.331c-16.661-16.661-16.661-43.668 0-60.333 8.32-8.337 19.243-12.501 30.165-12.501s21.845 4.164 30.165 12.501l60.331 60.333c16.661 16.661 16.661 43.669 0 60.331zM512 106.667c-23.552 0-42.667-19.115-42.667-42.667v-85.333c0-23.552 19.115-42.667 42.667-42.667s42.667 19.115 42.667 42.667v85.333c0 23.552-19.115 42.667-42.667 42.667zM874.155 146.298l-60.328 60.331c-16.64 16.661-43.691 16.661-60.331 0-16.661-16.661-16.661-43.669 0-60.331l60.331-60.333c8.32-8.337 19.243-12.501 30.165-12.501 10.92 0 21.843 4.164 30.163 12.501 16.666 16.666 16.666 43.672 0 60.333zM981.333 490.667h-85.333c-23.552 0-42.667-19.115-42.667-42.667s19.115-42.667 42.667-42.667h85.333c23.552 0 42.667 19.115 42.667 42.667s-19.115 42.667-42.667 42.667zM874.155 810.004c-16.64 16.661-43.688 16.661-60.328 0l-60.331-60.331c-16.661-16.661-16.661-43.669 0-60.331 8.32-8.341 19.243-12.501 30.165-12.501s21.845 4.16 30.165 12.501l60.328 60.331c16.666 16.661 16.666 43.669 0 60.331zM512 960c-23.552 0-42.667-19.115-42.667-42.667v-85.333c0-23.552 19.115-42.667 42.667-42.667s42.667 19.115 42.667 42.667v85.333c0 23.552-19.115 42.667-42.667 42.667zM512 725.333c-152.917 0-277.333-124.416-277.333-277.333s124.416-277.333 277.333-277.333c152.917 0 277.333 124.416 277.333 277.333s-124.416 277.333-277.333 277.333zM512 256c-105.856 0-192 86.144-192 192s86.144 192 192 192c105.856 0 192-86.144 192-192s-86.144-192-192-192z" />
<glyph unicode="&#xe919;" glyph-name="close" d="M841.487 46.121c19.994-19.999 52.413-19.999 72.407 0 19.999 19.994 19.999 52.408 0 72.407l-325.842 325.842 325.827 325.825c19.999 19.995 19.999 52.412 0 72.408-19.994 19.995-52.408 19.995-72.407 0l-325.827-325.827-325.827 325.828c-19.995 19.995-52.413 19.995-72.408 0s-19.995-52.413 0-72.408l325.828-325.826-325.843-325.847c-19.995-19.994-19.995-52.408 0-72.407 19.995-19.994 52.413-19.994 72.408 0l325.841 325.847 325.842-325.842z" />
<glyph unicode="&#xe91a;" glyph-name="arrow_circle" d="M574.944 586.814c11.36 11.361 29.138 12.394 41.666 3.099l3.589-3.098 100.894-100.89c11.361-11.361 12.394-29.139 3.099-41.667l-3.099-3.589-100.894-100.89c-12.497-12.497-32.758-12.496-45.255 0.001-11.36 11.361-12.393 29.139-3.097 41.666l3.098 3.589 78.24 78.282-78.24 78.242c-11.361 11.36-12.394 29.138-3.099 41.666l3.098 3.589zM698.452 495.246c17.673 0 32-14.327 32-32 0-16.2-12.039-29.589-27.658-31.708l-4.342-0.292h-414.421c-17.673 0-32 14.327-32 32 0 16.2 12.039 29.589 27.658 31.708l4.342 0.292h414.421zM162.938 816.635c190.454 180.092 490.869 176.874 677.395-9.65 189.798-189.796 189.798-497.519 0-687.318s-497.517-189.799-687.317-0.004c-91.146 91.147-142.35 214.764-142.35 343.664 0 123.94 47.342 242.999 132.011 333.001l10.339 10.659 9.921 9.648zM795.078 761.73c-164.805 164.804-432.002 164.805-596.807 0.002-79.143-79.141-123.605-186.482-123.605-298.405 0-111.926 44.461-219.264 123.605-298.409 164.806-164.801 432.003-164.8 596.807 0.004s164.805 432.006 0 596.808z" />
<glyph unicode="&#xe91b;" glyph-name="mac" horiz-adv-x="991" d="M739.080 453.1c-1.163 113.099 92.216 167.226 96.355 169.941-52.445 76.631-134.055 87.172-163.219 88.336-69.388 7.113-135.541-40.869-170.849-40.869-35.179 0-89.626 39.899-147.245 38.865-75.791-1.164-145.566-44.103-184.624-111.872-78.699-136.578-20.176-338.855 56.519-449.757 37.507-54.189 82.256-115.041 140.909-112.908 56.518 2.263 77.857 36.6 146.211 36.6s87.559-36.6 147.311-35.5c60.852 1.163 99.328 55.289 136.509 109.608 43.067 62.923 60.789 123.904 61.886 126.943-1.42 0.776-118.533 45.588-119.762 180.614zM626.681 784.771c31.103 37.7 52.188 90.21 46.43 142.525-44.944-1.811-99.199-29.811-131.465-67.576-28.907-33.433-54.064-86.783-47.339-138.063 50.054-3.944 101.27 25.479 132.373 63.115z" />
<glyph unicode="&#xe91c;" glyph-name="windows" horiz-adv-x="991" d="M66.065 743.226v-268.387h375.742v315.355l-375.742-46.968zM495.484 796.903v-322.065h429.419v375.742l-429.419-53.677zM495.484 421.161v-322.065l429.419-53.677v375.742h-429.419zM66.065 421.161v-268.387l375.742-46.969v315.356h-375.742z" />
<glyph unicode="&#xe91d;" glyph-name="linux" horiz-adv-x="991" d="M895.937 135.148c-26.191 10.749-47.775 27.674-46.209 60.089 1.526 32.375-23.146 53.829-23.146 53.829s21.58 70.881 1.523 129.404c-20.014 58.609-86.241 152.51-137.064 223.351-50.738 70.879-7.66 152.552-53.826 257.244-46.255 104.692-166.35 98.556-231.051 53.87-64.743-44.603-44.729-155.472-41.683-207.946 3.092-52.303 1.397-89.585-4.568-103.125-6.094-13.543-47.735-63.224-75.494-104.778-27.718-41.555-47.734-127.838-67.834-163.259-20.016-35.42-6.136-67.749-6.136-67.749s-13.879-4.572-24.671-27.803c-10.792-23.017-32.33-33.809-70.838-41.429-38.508-7.7-38.508-32.457-29.283-60.175 9.268-27.674 0.043-43.163-10.748-78.498s43.122-46.209 95.468-52.26c52.389-6.223 110.913-40.118 160.255-46.255 49.215-6.177 64.661 33.855 64.661 33.855s55.435 12.4 113.918 13.841c58.566 1.566 113.918-12.314 113.918-12.314s10.792-24.629 30.806-35.378c20.060-10.792 63.181-12.357 90.898 16.843 27.76 29.326 101.69 66.223 143.241 89.372 41.677 23.189 34.060 58.563 7.865 69.272zM535.483 814.376c26.406 0 47.735-26.194 47.735-58.482 0-22.935-10.706-42.698-26.323-52.303-3.977 1.734-8.166 3.512-12.608 5.416 9.394 4.656 16.080 16.63 16.080 30.596 0 18.195-11.257 32.966-25.18 32.966-13.751 0-25.052-14.811-25.052-32.966 0-6.729 1.609-13.203 4.36-18.491-8.212 3.258-15.786 6.305-21.709 8.547-3.217 7.871-5.037 16.757-5.037 26.237 0 32.287 21.329 58.481 47.735 58.481zM532.054 691.065c13.203-4.571 27.889-13.162 26.366-21.666-1.566-8.547-8.506-8.547-26.366-19.467-17.897-10.833-56.66-34.869-69.061-36.434-12.483-1.566-19.423 5.417-32.626 13.923-13.203 8.547-38.043 28.818-31.78 39.608 0 0 19.337 14.811 27.843 22.554 8.549 7.786 30.3 26.364 43.503 23.951 13.203-2.243 48.917-17.815 62.12-22.47zM413.016 805.108c20.82 0 37.746-24.797 37.746-55.392 0-5.628-0.548-10.833-1.605-15.869-5.077-1.735-10.243-4.528-15.234-8.759-2.54-2.073-4.783-4.020-6.94-5.966 3.3 6.177 4.611 14.98 3.131 24.247-2.795 16.714-13.923 28.903-24.969 27.167-11.003-1.905-17.646-16.926-14.851-33.727 2.834-16.801 13.923-28.987 24.923-27.166 0.638 0.128 1.229 0.296 1.863 0.508-5.374-5.164-10.326-9.607-15.36-13.371-15.234 7.066-26.406 28.099-26.406 52.981 0 30.592 16.883 55.348 37.703 55.348zM372.35 26.859c-4.905-22.092-30.763-38.129-30.763-38.129-23.443-7.363-88.611 20.906-118.15 33.303-29.495 12.232-104.608 16.037-114.467 26.958-9.776 11.172 4.908 35.757 8.675 59.075 3.639 23.486-7.363 38.169-3.723 54.209 3.723 15.951 51.71 15.951 70.12 26.997 18.492 11.129 22.174 43.12 36.942 51.709 14.768 8.674 41.809-22.089 52.895-39.394 11.045-17.14 52.895-91.027 70.12-109.476 17.266-18.452 33.26-43.163 28.352-65.252zM644.747 241.489c-4.446-21.709-4.446-100.164-4.446-100.164s-47.732-66.14-121.744-76.975c-73.929-10.831-110.912-3.046-110.912-3.046l-41.558 47.692c0 0 32.289 4.694 27.717 37.026-4.654 32.329-98.554 77.018-115.524 117.089-16.885 39.989-3.047 107.824 18.535 141.722 21.54 33.855 35.334 107.738 56.918 132.453 21.58 24.543 38.466 76.932 30.763 100.079 0 0 46.212-55.476 78.498-46.293 32.332 9.266 104.821 63.221 115.527 53.91 10.749-9.268 103.17-212.515 112.349-277.218 9.269-64.661-6.177-113.918-6.177-113.918s-35.378 9.226-39.946-12.357zM881.126 96.385c-14.386-13.203-94.449-45.532-118.444-70.752-23.869-25.009-55.055-45.367-74.141-39.441-19.212 6.052-35.926 32.329-27.549 70.669 8.337 38.212 15.575 80.103 14.389 104.058-1.186 23.952-6.052 56.323 0 61.103 5.966 4.658 15.489 2.329 15.489 2.329s-4.697-45.406 22.766-57.466c27.463-11.849 66.989 4.783 78.964 16.84 12.017 11.892 20.394 29.835 20.394 29.835s11.935-6.052 10.749-25.138c-1.183-19.126 8.337-46.718 26.366-56.241 17.9-9.434 45.406-22.68 31.017-35.797z" />
<glyph unicode="&#xe91e;" glyph-name="to_Top" horiz-adv-x="585" d="M318.431 937.098c-14.282 14.282-37.438 14.282-51.72 0l-232.739-232.739c-14.282-14.282-14.282-37.438 0-51.72s37.438-14.282 51.72 0l206.879 206.879 206.877-206.879c14.282-14.282 37.439-14.282 51.722 0s14.282 37.438 0 51.72l-232.739 232.739zM256 911.238v-975.238h73.143v975.238h-73.143z" />
<glyph unicode="&#xe91f;" glyph-name="check_mark" d="M552.703 535.238c18.745 18.745 49.137 18.744 67.882-0.001 17.041-17.041 18.59-43.708 4.647-62.499l-4.648-5.384-93.363-93.36c-17.046-17.046-43.722-18.59-62.513-4.636l-5.383 4.651-55.968 56.016c-18.737 18.753-18.724 49.145 0.029 67.882 17.048 17.034 43.716 18.572 62.501 4.621l5.382-4.65 21.98-21.975 59.455 59.334zM412.288 704.832l-39.237-5.233-9.305-1.637c-45.841-10.054-80.996-47.719-87.281-94.853l-5.297-39.269-24.088-31.617-5.743-8.261c-24.885-39.431-22.972-90.557 5.714-128.153l24.117-31.584 5.249-39.234 1.636-9.297c10.048-45.8 47.714-80.955 94.848-87.24l39.388-5.221 31.536-24.159 8.251-5.745c39.394-24.895 90.595-22.981 128.16 5.735l31.477 24.105 39.305 5.232 9.298 1.636c45.805 10.049 80.96 47.717 87.245 94.852l5.208 39.336 24.173 31.546 5.745 8.249c24.896 39.383 22.981 90.592-5.748 128.159l-24.106 31.533-5.227 39.247-1.636 9.297c-10.048 45.8-47.71 80.956-94.845 87.24l-39.477 5.336-31.447 24.040c-40.26 30.782-96.166 30.782-136.416 0.008l-31.498-24.048zM521.882 652.617l41.651-31.864c6.648-5.086 14.511-8.345 22.807-9.454l52.083-6.96c7.313-0.975 13.044-6.714 14.024-14.063l6.911-51.882c1.105-8.294 4.359-16.156 9.439-22.805l31.872-41.712c4.469-5.844 4.469-13.966 0.012-19.795l-23.561-30.787-1.559-1.425c-7.725-7.39-14.284-17.919-16.2-32.246l-6.957-52.032c-0.976-7.319-6.717-13.054-14.063-14.033l-51.924-6.91-7.083-1.391c-6.745-1.782-12.48-4.702-17.224-8.433l-4.925-4.489-35.244-27c-5.839-4.464-13.969-4.464-19.801-0.006l-41.651 31.862c-6.647 5.085-14.508 8.343-22.803 9.452l-52.080 6.963c-7.318 0.976-13.050 6.716-14.030 14.063l-6.911 51.879c-1.105 8.294-4.359 16.156-9.439 22.804l-31.872 41.712c-3.581 4.694-4.298 10.832-2.138 16.117l2.683 4.454 22.983 30.13 1.587 1.363c7.718 7.383 14.278 17.912 16.194 32.238l6.96 52.032c0.976 7.32 6.716 13.053 14.064 14.033l51.881 6.857 7.088 1.385c9 2.37 16.201 6.764 21.656 12.408l0.571 0.708 35.203 26.816c5.842 4.467 13.968 4.467 19.798 0.009zM512 944c-265.097 0-480-214.903-480-480s214.904-480 480-480c265.095 0 480 214.905 480 480s-214.904 480-480 480zM512 848c212.076 0 384-171.923 384-384s-171.924-384-384-384c-212.077 0-384 171.924-384 384s171.923 384 384 384z" />
<glyph unicode="&#xe920;" glyph-name="cheak_list" horiz-adv-x="896" d="M736.277 944h-576.237c-79.551 0-144.040-64.489-144.040-144.040v-672.28c0-79.552 64.488-144.038 144.040-144.038h576.237c79.553 0 144.045 64.486 144.045 144.038v672.28c0 79.551-64.492 144.040-144.045 144.040zM160.040 848h576.237c26.534 0 48.045-21.509 48.045-48.040v-672.28c0-26.531-21.509-48.038-48.045-48.038h-576.237c-26.533 0-48.040 21.506-48.040 48.038v672.28c0 26.532 21.508 48.040 48.040 48.040zM640.284 703.904c26.51 0 48-21.49 48-48 0-24.301-18.058-44.383-41.487-47.562l-6.513-0.438h-384.159c-26.51 0-48 21.49-48 48 0 24.301 18.058 44.383 41.487 47.562l6.513 0.438h384.159zM352.165 319.737c26.51 0 48-21.49 48-48 0-24.301-18.058-44.383-41.487-47.562l-6.513-0.438h-96.040c-26.51 0-48 21.49-48 48 0 24.301 18.058 44.383 41.487 47.562l6.513 0.438h96.040zM635.634 328.346c18.745 18.746 49.136 18.747 67.882 0.002 17.042-17.040 18.592-43.707 4.65-62.499l-4.647-5.384-93.395-93.402c-17.046-17.048-43.724-18.592-62.516-4.637l-5.383 4.651-55.994 56.045c-18.737 18.754-18.723 49.146 0.031 67.882 17.049 17.033 43.716 18.57 62.501 4.619l5.381-4.65 21.984-22.047 59.506 59.418zM640.284 511.826c26.51 0 48-21.49 48-48 0-24.301-18.058-44.383-41.487-47.562l-6.513-0.438h-384.159c-26.51 0-48 21.49-48 48 0 24.301 18.058 44.383 41.487 47.562l6.513 0.438h384.159z" />
<glyph unicode="&#xe921;" glyph-name="note" horiz-adv-x="960" d="M789.75 944h-576c-79.55 0-144-64.45-144-144v-672c0-79.552 64.449-144 144-144h576c79.553 0 144 64.447 144 144v672c0 79.551-64.448 144-144 144zM213.75 848h576c26.532 0 48-21.468 48-48v-672c0-26.534-21.466-48-48-48h-576c-26.532 0-48 21.468-48 48v672c0 26.53 21.47 48 48 48zM181.59 704c26.51 0 48-21.49 48-48 0-24.301-18.058-44.383-41.487-47.562l-6.513-0.438h-111.84c-26.51 0-48 21.49-48 48 0 24.301 18.058 44.383 41.487 47.562l6.513 0.438h111.84zM181.59 512c26.51 0 48-21.49 48-48 0-24.301-18.058-44.383-41.487-47.562l-6.513-0.438h-111.84c-26.51 0-48 21.49-48 48 0 24.301 18.058 44.383 41.487 47.562l6.513 0.438h111.84zM181.6 320c26.51 0 48-21.49 48-48 0-24.301-18.058-44.383-41.487-47.562l-6.513-0.438h-117.6c-26.51 0-48 21.49-48 48 0 24.301 18.058 44.383 41.487 47.562l6.513 0.438h117.6zM309.75 944c24.301 0 44.383-18.058 47.562-41.487l0.438-6.513v-864c0-26.51-21.49-48-48-48-24.301 0-44.383 18.058-47.562 41.487l-0.438 6.513v864c0 26.51 21.49 48 48 48zM693.75 704c26.51 0 48-21.49 48-48 0-24.301-18.058-44.383-41.487-47.562l-6.513-0.438h-192c-26.51 0-48 21.49-48 48 0 24.301 18.058 44.383 41.487 47.562l6.513 0.438h192zM693.75 512c26.51 0 48-21.49 48-48 0-24.301-18.058-44.383-41.487-47.562l-6.513-0.438h-192c-26.51 0-48 21.49-48 48 0 24.301 18.058 44.383 41.487 47.562l6.513 0.438h192z" />
<glyph unicode="&#xe922;" glyph-name="sim" horiz-adv-x="832" d="M464.138 751.914c24.301 0 44.383-18.058 47.562-41.487l0.438-6.513v-96.040c0-26.51-21.49-48-48-48-24.301 0-44.383 18.058-47.562 41.487l-0.438 6.513v96.040c0 26.51 21.49 48 48 48zM608.195 751.914c24.301 0 44.383-18.058 47.562-41.487l0.438-6.513v-96.040c0-26.51-21.49-48-48-48-24.301 0-44.383 18.058-47.562 41.487l-0.438 6.513v96.040c0 26.51 21.49 48 48 48zM320.072 751.914c24.301 0 44.383-18.058 47.562-41.487l0.438-6.513v-96.040c0-26.51-21.49-48-48-48-24.301 0-44.383 18.058-47.562 41.487l-0.438 6.513v96.040c0 26.51 21.49 48 48 48zM656.24 944h-344.399c-38.201 0-74.837-15.185-101.847-42.204l-135.795-135.795c-27.014-27.006-42.198-63.641-42.198-101.841v-536.48c0-79.552 64.488-144.038 144.040-144.038h480.2c79.553 0 144.038 64.486 144.038 144.038v672.28c0 79.552-64.486 144.040-144.038 144.040zM311.841 848h344.399c26.532 0 48.038-21.507 48.038-48.040v-672.28c0-26.534-21.505-48.038-48.038-48.038h-480.2c-26.533 0-48.040 21.506-48.040 48.038v536.48c0 12.729 5.063 24.944 14.076 33.954l135.805 135.805c9.015 9.018 21.231 14.081 33.96 14.081z" />
<glyph unicode="&#xe923;" glyph-name="glasses_book" d="M945.508 399.798c26.51 0 48-21.49 48-48 0-24.301-18.058-44.383-41.487-47.562l-6.513-0.438h-768.32c-24.32 0-44.421-18.074-47.602-41.52l-0.439-6.518v-96.045c0-24.318 18.074-44.419 41.522-47.6l6.519-0.439h768.32c26.51 0 48-21.49 48-48 0-24.301-18.058-44.383-41.487-47.562l-6.513-0.438h-768.32c-76.236 0-138.64 59.228-143.708 134.177l-0.332 9.861v96.045c0 76.233 59.228 138.638 134.179 143.706l9.862 0.332h768.32zM897.488 255.74c26.51 0 48-21.49 48-48 0-24.301-18.058-44.383-41.487-47.562l-6.513-0.438h-672.278c-26.51 0-48 21.49-48 48 0 24.301 18.058 44.383 41.487 47.562l6.513 0.438h672.278zM286.895 880c-106.072 0-192.060-85.988-192.060-192.060s85.988-192.060 192.060-192.060c106.071 0 192.060 85.988 192.060 192.060s-85.988 192.060-192.060 192.060zM286.895 784c53.052 0 96.060-43.008 96.060-96.060s-43.008-96.060-96.060-96.060c-53.053 0-96.060 43.008-96.060 96.060s43.008 96.060 96.060 96.060zM739.767 880c-106.069 0-192.058-85.989-192.058-192.060s85.989-192.060 192.058-192.060c106.074 0 192.064 85.988 192.064 192.060s-85.99 192.060-192.064 192.060zM739.767 784c53.055 0 96.064-43.008 96.064-96.060s-43.009-96.060-96.064-96.060c-53.050 0-96.058 43.008-96.058 96.060s43.008 96.060 96.058 96.060zM513.29 777.106c47.504 0 92.234-22.367 120.732-60.373 15.904-21.209 11.603-51.295-9.607-67.199-19.281-14.458-45.899-12.218-62.527 4.244l-4.672 5.363c-10.369 13.828-26.643 21.965-43.927 21.965-14.815 0-28.888-5.979-39.137-16.395l-4.791-5.571c-15.904-21.209-45.99-25.51-67.199-9.606s-25.51 45.99-9.606 67.199c28.499 38.005 73.229 60.372 120.733 60.372zM142.853 735.935c26.51 0 48-21.49 48-48 0-24.301-18.058-44.383-41.487-47.562l-6.513-0.438h-61.706c-26.51 0-48 21.49-48 48 0 24.301 18.058 44.383 41.487 47.562l6.513 0.438h61.706zM945.476 735.935c26.51 0 48-21.49 48-48 0-24.301-18.058-44.383-41.487-47.562l-6.513-0.438h-61.702c-26.51 0-48 21.49-48 48 0 24.301 18.058 44.383 41.487 47.562l6.513 0.438h61.702z" />
<glyph unicode="&#xe924;" glyph-name="compare" horiz-adv-x="1113" d="M667.305 893.217v-890.435h-266.61v512h-0.522v378.435h267.131zM400.696-64h670.911v667.826h-337.519v356.174h-400.697v-445.217h-333.391v-578.783h400.696zM333.391 448v-445.217h-266.609v445.217h266.609zM1004.824 537.043v-534.261h-267.13v534.261h267.13z" />
<glyph unicode="&#xe925;" glyph-name="slider_left" horiz-adv-x="585" d="M550.647-29.647c-19.475-19.475-49.951-21.246-71.427-5.311l-6.153 5.311-438.857 438.857c-19.475 19.475-21.246 49.951-5.312 71.427l5.311 6.153 438.857 438.859c21.423 21.423 56.157 21.423 77.58 0 19.476-19.475 21.246-49.951 5.312-71.427l-5.311-6.153-400.043-400.070 400.042-400.067c19.475-19.475 21.246-49.951 5.311-71.427l-5.311-6.153z" />
<glyph unicode="&#xe926;" glyph-name="slider_right" horiz-adv-x="585" d="M34.353 925.647c19.475 19.475 49.951 21.246 71.427 5.311l6.153-5.311 438.857-438.857c19.475-19.475 21.246-49.951 5.312-71.427l-5.311-6.153-438.857-438.859c-21.423-21.423-56.157-21.423-77.58 0-19.476 19.475-21.246 49.951-5.312 71.427l5.311 6.153 400.043 400.070-400.042 400.067c-19.475 19.475-21.246 49.951-5.311 71.427l5.311 6.153z" />
<glyph unicode="&#xe927;" glyph-name="play" horiz-adv-x="922" d="M848.937 534.963c64.44-40.067 64.44-133.857 0-173.921l-649.521-403.85c-68.211-42.409-156.469 6.641-156.469 86.963v807.694c0 80.321 88.258 129.372 156.47 86.961l649.52-403.847z" />
<glyph unicode="&#xe928;" glyph-name="list" horiz-adv-x="843" d="M520.634 944.941h-360.006c-80.417 0-145.569-65.151-145.569-145.569v-702.743c0-80.42 65.151-145.571 145.569-145.571h501.962c80.416 0 145.565 65.151 145.565 145.571v560.789c0 38.587-15.35 75.627-42.645 102.922l-141.957 141.955c-27.296 27.296-64.332 42.646-102.92 42.646zM160.628 854.588h360.006c14.617 0 28.674-5.826 39.031-16.183l141.957-141.955c10.354-10.354 16.181-24.414 16.181-39.032v-560.789c0-30.52-24.697-55.218-55.212-55.218h-501.962c-30.518 0-55.216 24.698-55.216 55.218v702.743c0 30.517 24.699 55.216 55.216 55.216zM511.881 944.941c22.871 0 41.773-16.996 44.764-39.046l0.412-6.13v-200.784c0-2.069 1.272-3.858 3.071-4.624l1.947-0.396h200.788c24.95 0 45.176-20.226 45.176-45.176 0-22.871-16.996-41.773-39.046-44.764l-6.13-0.412h-200.788c-49.733 0-90.594 38.1-94.981 86.694l-0.39 8.679v200.784c0 24.95 20.226 45.176 45.176 45.176zM612.312 537.343c24.95 0 45.176-20.226 45.176-45.176 0-22.871-16.996-41.773-39.046-44.764l-6.13-0.412h-238.429c-24.95 0-45.176 20.226-45.176 45.176 0 22.871 16.996 41.773 39.046 44.764l6.13 0.412h238.429zM612.312 392.782c24.95 0 45.176-20.226 45.176-45.176 0-22.871-16.996-41.773-39.046-44.764l-6.13-0.412h-238.429c-24.95 0-45.176 20.226-45.176 45.176 0 22.871 16.996 41.773 39.046 44.764l6.13 0.412h238.429zM612.312 248.224c24.95 0 45.176-20.226 45.176-45.176 0-22.871-16.996-41.773-39.046-44.764l-6.13-0.412h-238.429c-24.95 0-45.176 20.226-45.176 45.176 0 22.871 16.996 41.773 39.046 44.764l6.13 0.412h238.429zM217.098 543.383l6.454-0.401c25.369-3.175 44.997-24.823 44.997-51.050 0-28.413-23.036-51.451-51.451-51.451s-51.451 23.038-51.451 51.451c0 26.228 19.629 47.875 44.997 51.050l6.454 0.401zM217.098 399.059l6.454-0.401c25.371-3.176 44.996-24.828 44.996-51.052 0-28.422-23.045-51.447-51.451-51.447s-51.451 23.025-51.451 51.447c0 26.224 19.626 47.876 44.997 51.052l6.454 0.401zM217.098 254.735l6.454-0.401c25.371-3.176 44.996-24.828 44.996-51.052 0-28.422-23.045-51.447-51.451-51.447s-51.451 23.025-51.451 51.447c0 26.224 19.626 47.876 44.997 51.052l6.454 0.401z" />
<glyph unicode="&#xe929;" glyph-name="arrow_left" horiz-adv-x="1396" d="M1265 390.687c33.561 0 60.768 27.207 60.768 60.768s-27.207 60.768-60.768 60.768v-121.536zM87.7 494.424c-23.729-23.731-23.729-62.207 0-85.938l386.724-386.724c23.731-23.731 62.207-23.731 85.938 0s23.732 62.207 0 85.938l-343.749 343.754 343.749 343.754c23.732 23.731 23.732 62.207 0 85.934-23.731 23.738-62.207 23.738-85.938 0l-386.724-386.719zM1265 512.222h-1134.329v-121.536h1134.329v121.536z" />
</font>
</defs>
</svg>
